<?xml version="1.0" encoding="utf-8"?>
<!-- Generator: Adobe Illustrator 25.4.1, SVG Export Plug-In . SVG Version: 6.00 Build 0)  -->
<svg version="1.1" id="Capa_1" xmlns="http://www.w3.org/2000/svg" xmlns:xlink="http://www.w3.org/1999/xlink" x="0px" y="0px"
	 viewBox="0 0 49.5 61.6" style="enable-background:new 0 0 49.5 61.6;" xml:space="preserve">
<g>
	<path d="M46.8,10.8h-12v-4c0-1.6-0.6-3.1-1.8-4.2c-1.1-1.1-2.7-1.8-4.2-1.8h-8c-1.6,0-3.1,0.6-4.2,1.8c-1.1,1.1-1.8,2.7-1.8,4.2v4
		h-12c-0.7,0-1.4,0.4-1.7,1s-0.4,1.4,0,2c0.4,0.6,1,1,1.7,1h2v40c0,1.6,0.6,3.1,1.8,4.2c1.1,1.1,2.7,1.8,4.2,1.8h28
		c1.6,0,3.1-0.6,4.2-1.8c1.1-1.1,1.8-2.7,1.8-4.2v-40h2c0.7,0,1.4-0.4,1.7-1s0.4-1.4,0-2C48.1,11.2,47.5,10.8,46.8,10.8z M18.8,6.8
		c0-0.5,0.2-1,0.6-1.4c0.4-0.4,0.9-0.6,1.4-0.6h8c0.5,0,1,0.2,1.4,0.6c0.4,0.4,0.6,0.9,0.6,1.4v4h-12V6.8z M40.8,54.8
		c0,0.5-0.2,1-0.6,1.4c-0.4,0.4-0.9,0.6-1.4,0.6h-28c-0.5,0-1-0.2-1.4-0.6c-0.4-0.4-0.6-0.9-0.6-1.4v-40h32V54.8z"/>
	<path d="M18.8,48.8c0.5,0,1-0.2,1.4-0.6c0.4-0.4,0.6-0.9,0.6-1.4v-22c0-0.7-0.4-1.4-1-1.7c-0.6-0.4-1.4-0.4-2,0c-0.6,0.4-1,1-1,1.7
		v22c0,0.5,0.2,1,0.6,1.4C17.7,48.6,18.2,48.8,18.8,48.8z"/>
	<path d="M30.8,48.8c0.5,0,1-0.2,1.4-0.6c0.4-0.4,0.6-0.9,0.6-1.4v-22c0-0.7-0.4-1.4-1-1.7c-0.6-0.4-1.4-0.4-2,0c-0.6,0.4-1,1-1,1.7
		v22c0,0.5,0.2,1,0.6,1.4C29.7,48.6,30.2,48.8,30.8,48.8z"/>
</g>
</svg>
