<?xml version="1.0" encoding="utf-8"?>
<!-- Generator: Adobe Illustrator 25.4.1, SVG Export Plug-In . SVG Version: 6.00 Build 0)  -->
<svg version="1.1" id="Capa_1" xmlns="http://www.w3.org/2000/svg" xmlns:xlink="http://www.w3.org/1999/xlink" x="0px" y="0px"
	 viewBox="0 0 73 72" style="enable-background:new 0 0 73 72;" xml:space="preserve">
<g>
	<path d="M71.5,29.1c0-1.3-0.5-2.4-1.5-3.2L62.5,20V7.5c0-0.7-0.3-1.4-0.8-1.9c-0.5-0.5-1.2-0.8-1.9-0.8h-5.5
		c-0.7,0-1.4,0.3-1.9,0.8c-0.5,0.5-0.8,1.2-0.8,1.9v4c-3.4-2.7-6.7-5.4-10.1-8c-3.2-2.6-6.9-2.6-10.1,0C22,10.9,12.5,18.4,3,26
		c-0.7,0.5-1.3,1.2-1.4,2.1c-0.1,1.4-0.2,2.9,0,4.3v0c0,0.7,0.3,1.4,0.9,1.9C3,34.7,3.7,35,4.4,35h6.8v32.5c0,1.7,1.2,3,2.7,3H59
		c1.5,0,2.7-1.4,2.7-3l0-18.6V35h6.8c0.7,0,1.4-0.3,2-0.8c0.5-0.5,0.8-1.2,0.9-1.9v0c0.1-0.7,0.1-1.4,0.1-2h0
		C71.5,29.9,71.5,29.5,71.5,29.1L71.5,29.1z"/>
</g>
</svg>
