<?xml version="1.0" encoding="utf-8"?>
<!-- Generator: Adobe Illustrator 25.4.1, SVG Export Plug-In . SVG Version: 6.00 Build 0)  -->
<svg version="1.1" id="Capa_1" xmlns="http://www.w3.org/2000/svg" xmlns:xlink="http://www.w3.org/1999/xlink" x="0px" y="0px"
	 viewBox="0 0 80 80" style="enable-background:new 0 0 80 80;" xml:space="preserve">
<g>
	<path d="M77,24.7h-8.5L57.9,4.9c-1.4-2.6-5-3.7-7.6-2.3c-2.7,1.5-3.7,4.9-2.3,7.6l7.8,14.5h-6.3l-25.4,0L32,10.2
		c1.5-2.7,0.4-6.1-2.3-7.6c-2.6-1.4-6.2-0.3-7.6,2.3L11.5,24.7H3c-1.4,0-2.5,1.1-2.5,2.5v9.1c0,1.4,1.1,2.5,2.5,2.5h1.2l3.2,28.7
		C7.6,71.1,10.2,78,18,78H62c7.9,0,10.4-6.9,10.7-10.5l3.2-28.7H77c1.4,0,2.5-1.1,2.5-2.5l0-9.1C79.5,25.8,78.4,24.7,77,24.7
		L77,24.7z M50.4,9c-0.8-1.4-0.2-3.2,1.2-4c1.4-0.7,3.3-0.2,4,1.2l10,18.5h-6.7L50.4,9z M24.4,6.2c0.7-1.4,2.6-1.9,4-1.2
		c1.4,0.8,2,2.6,1.2,4l-8.5,15.7h-6.7L24.4,6.2z M70,67.2c0,0.3-0.7,8.1-8.1,8.1l-43.9,0c-7.3,0-8-7.8-8.1-8.2L6.8,38.8h66.4
		L70,67.2z M74.7,36.1H5.3c-0.2,0-0.4,0.1-0.6,0.2l-1.6,0L3,27.3h64.8c0,0,0,0,0.1,0c0.2,0,0.4,0,0.5-0.1l8.5-0.1l0.2,8.9L74.7,36.1
		z"/>
	<path d="M27.4,43.7H15.7c-0.7,0-1.5,0.3-1.9,0.9c-0.5,0.6-0.7,1.3-0.5,2.1l1.5,7.3c0.2,1.2,1.3,2,2.4,2h10.2c1.4,0,2.5-1.1,2.5-2.5
		v-7.3C29.9,44.8,28.8,43.7,27.4,43.7L27.4,43.7z M27.2,53.4l-9.9,0.1l-1.6-7.1l11.5-0.2L27.2,53.4L27.2,53.4z"/>
	<path d="M27.4,57.5H17.2c-0.7,0-1.4,0.3-1.9,0.9c-0.5,0.6-0.7,1.3-0.5,2.1l1.5,7.3c0.2,1.2,1.3,2,2.4,2h8.8c1.4,0,2.5-1.1,2.5-2.5
		V60C29.9,58.7,28.8,57.5,27.4,57.5L27.4,57.5z M27.2,67.2l-8.4,0.1l-1.6-7.1l10-0.2V67.2z"/>
	<path d="M64.3,43.7H52.6c-1.4,0-2.5,1.1-2.5,2.5v7.3c0,1.4,1.1,2.5,2.5,2.5h10.2c1.2,0,2.2-0.8,2.4-2l1.5-7.3
		c0.1-0.7,0-1.5-0.5-2.1C65.7,44,65,43.7,64.3,43.7L64.3,43.7z M62.7,53.4l-9.9,0.2l-0.2-7.2l11.5-0.2L62.7,53.4z"/>
	<path d="M62.8,57.5H52.6c-1.4,0-2.5,1.1-2.5,2.5v7.3c0,1.4,1.1,2.5,2.5,2.5h8.8c1.2,0,2.2-0.8,2.4-2l1.5-7.3c0.1-0.7,0-1.5-0.5-2.1
		C64.2,57.9,63.5,57.5,62.8,57.5L62.8,57.5z M61.2,67.2l-8.4,0.2l-0.2-7.2l10-0.2L61.2,67.2z"/>
	<path d="M45.1,43.7H34.9c-1.4,0-2.5,1.1-2.5,2.5v7.3c0,1.4,1.1,2.5,2.5,2.5h10.2c1.4,0,2.5-1.1,2.5-2.5v-7.3
		C47.6,44.8,46.5,43.7,45.1,43.7z M44.9,53.4l-9.9,0.2l-0.2-7.2l10-0.2L44.9,53.4z"/>
	<path d="M45.1,57.5H34.9c-1.4,0-2.5,1.1-2.5,2.5v7.3c0,1.4,1.1,2.5,2.5,2.5h10.2c1.4,0,2.5-1.1,2.5-2.5V60
		C47.6,58.7,46.5,57.5,45.1,57.5z M44.9,67.2l-9.9,0.2l-0.2-7.2l10-0.2L44.9,67.2z"/>
</g>
</svg>
