<?xml version="1.0" encoding="utf-8"?>
<!-- Generator: Adobe Illustrator 25.4.1, SVG Export Plug-In . SVG Version: 6.00 Build 0)  -->
<svg version="1.1" id="Capa_1" xmlns="http://www.w3.org/2000/svg" xmlns:xlink="http://www.w3.org/1999/xlink" x="0px" y="0px"
	 viewBox="0 0 80 54" style="enable-background:new 0 0 80 54;" xml:space="preserve">
<g>
	<path d="M2.9,5.6c-3.2,0-3.2-4.9,0-4.9h15.4c1.2,0,2.2,0.7,2.2,1.9l0.5,1h56c1.7,0,2.9,1.7,2.4,3.2L68.2,36c-0.2,1-1.2,1.7-2.2,1.7
		H28c-1,0-1.9-0.7-2.4-1.7c-2.9-10.2-6.1-20.5-9.3-30.5L2.9,5.6L2.9,5.6z M22.4,8.5l7.3,24.4h34.6l9.3-24.4L22.4,8.5z"/>
	<path d="M34.1,39.4c3.9,0,7.1,3.2,7.1,7.1c0,3.7-3.2,6.8-7.1,6.8c-3.9,0-6.8-3.2-6.8-6.8C27.2,42.6,30.2,39.4,34.1,39.4L34.1,39.4z
		 M34.1,44.3c-1.2,0-1.9,1-1.9,2.2c0,1,0.7,1.9,1.9,1.9c1.2,0,2.2-1,2.2-1.9C36.3,45.3,35.3,44.3,34.1,44.3z"/>
	<path d="M59.7,39.4c3.7,0,6.8,3.2,6.8,7.1c0,3.7-3.2,6.8-6.8,6.8c-3.9,0-7.1-3.2-7.1-6.8C52.6,42.6,55.8,39.4,59.7,39.4L59.7,39.4z
		 M59.7,44.3c-1.2,0-2.2,1-2.2,2.2c0,1,1,1.9,2.2,1.9c1,0,1.9-1,1.9-1.9C61.6,45.3,60.6,44.3,59.7,44.3z"/>
</g>
</svg>
