<?xml version="1.0" encoding="utf-8"?>
<!-- Generator: Adobe Illustrator 25.4.1, SVG Export Plug-In . SVG Version: 6.00 Build 0)  -->
<svg version="1.1" id="Capa_1" xmlns="http://www.w3.org/2000/svg" xmlns:xlink="http://www.w3.org/1999/xlink" x="0px" y="0px"
	 viewBox="0 0 102.2 108.4" style="enable-background:new 0 0 102.2 108.4;" xml:space="preserve">
<style type="text/css">
	.st0{fill:#5B5B5B;}
</style>
<g>
	<path class="st0" d="M81.1,67.5c-4.7,0-9.3,1.7-12.9,4.7L40.9,56.3c0.1-1.4,0.1-2.8,0-4.1l27.2-15.9v0c4.9,4.1,11.4,5.6,17.5,4.1
		c6.2-1.5,11.3-5.8,13.7-11.6c2.5-5.8,2-12.5-1.2-18C95.1,5.3,89.4,1.7,83.1,1c-6.3-0.7-12.6,1.7-16.8,6.4
		c-4.3,4.7-6.1,11.1-4.8,17.4L35.2,40.2c-3.7-3.8-8.8-5.9-14.1-5.9c-5.3,0-10.4,2.1-14.2,5.8C3.2,43.9,1.1,49,1.1,54.3
		s2.1,10.4,5.9,14.2c3.8,3.8,8.9,5.9,14.2,5.8c5.3,0,10.4-2.1,14.1-5.9l26.2,15.4c-1,5.4,0.2,11,3.5,15.5c3.3,4.5,8.2,7.4,13.7,8
		c5.5,0.7,11-0.9,15.2-4.5c4.2-3.5,6.8-8.6,7.2-14.2c0.3-5.5-1.6-10.9-5.4-14.9C91.9,69.8,86.6,67.5,81.1,67.5L81.1,67.5z"/>
</g>
</svg>
