<?xml version="1.0" encoding="utf-8"?>
<!-- Generator: Adobe Illustrator 25.4.1, SVG Export Plug-In . SVG Version: 6.00 Build 0)  -->
<svg version="1.1" id="Capa_1" xmlns="http://www.w3.org/2000/svg" xmlns:xlink="http://www.w3.org/1999/xlink" x="0px" y="0px"
	 viewBox="0 0 100 100" style="enable-background:new 0 0 100 100;" xml:space="preserve">
<style type="text/css">
	.st0{fill-rule:evenodd;clip-rule:evenodd;fill:#808080;}
	.st1{fill-rule:evenodd;clip-rule:evenodd;fill:#FFFFFF;}
</style>
<g>
	<ellipse transform="matrix(0.7071 -0.7071 0.7071 0.7071 -20.7107 50)" class="st0" cx="50" cy="50" rx="49.5" ry="49.5"/>
</g>
<g>
	<path class="st1" d="M34.6,57.7c-0.9,0-1.7-0.3-2.4-1L25.3,50c-6.8-6.8-6.8-17.9,0-24.6c6.8-6.8,17.9-6.8,24.6,0l6.8,6.8
		c1.4,1.4,1.4,3.5,0,4.9c-1.4,1.4-3.5,1.4-4.9,0L45,30.3c-2-2-4.7-3.1-7.4-3.1c-2.8,0-5.4,1.1-7.4,3.1c-4.1,4.1-4.1,10.8,0,14.9
		L37,52c1.4,1.4,1.4,3.5,0,4.9C36.4,57.4,35.4,57.7,34.6,57.7L34.6,57.7z M62.3,79.8c-4.5,0-8.9-1.7-12.3-5.1l-6.8-6.8
		c-1.4-1.4-1.4-3.5,0-4.9c1.4-1.4,3.5-1.4,4.9,0l6.8,6.8c4.1,4.1,10.8,4.1,14.8,0c4.1-4.1,4.1-10.8,0-14.9l-6.8-6.8
		c-1.4-1.4-1.4-3.5,0-4.9c1.4-1.4,3.5-1.4,4.9,0l6.8,6.8c6.8,6.8,6.8,17.9,0,24.6C71.2,78.1,66.8,79.8,62.3,79.8L62.3,79.8z
		 M53.1,57.9c0.7,0.7,1.6,1,2.4,1c0.9,0,1.8-0.3,2.5-1c1.4-1.4,1.4-3.5,0-4.9L46.9,41.9c-1.4-1.4-3.5-1.4-4.9,0
		c-1.4,1.4-1.4,3.5,0,4.9L53.1,57.9z"/>
</g>
</svg>
