<?xml version="1.0" encoding="utf-8"?>
<!-- Generator: Adobe Illustrator 25.4.1, SVG Export Plug-In . SVG Version: 6.00 Build 0)  -->
<svg version="1.1" id="Capa_1" xmlns="http://www.w3.org/2000/svg" xmlns:xlink="http://www.w3.org/1999/xlink" x="0px" y="0px"
	 viewBox="0 0 53.1 80" style="enable-background:new 0 0 53.1 80;" xml:space="preserve">
<g>
	<path d="M26.5,0.5c-14.4,0-26,11.7-26,26c0,5.2,1.5,10,4.1,14.1l13.2,20.5c-2,0.7-3.8,1.6-5.2,2.7c-1.8,1.5-3.1,3.5-3.1,5.8
		c0,3.1,2.3,5.7,5.4,7.3c3.1,1.6,7.2,2.6,11.6,2.6s8.5-0.9,11.6-2.6c3.1-1.6,5.4-4.1,5.4-7.3c0-2.3-1.3-4.3-3.1-5.8
		c-1.4-1.1-3.2-2.1-5.2-2.7l13.2-20.5c1.3-2,2.3-4.1,3-6.4c0.3-1-0.3-2-1.2-2.2c-1-0.3-2,0.3-2.2,1.2c-0.6,2-1.5,3.8-2.6,5.5
		L26.5,68.1L7.7,38.7C5.4,35.2,4.1,31,4.1,26.5c0-12.4,10-22.4,22.4-22.4S49,14.1,49,26.5c0,0.5,0.2,0.9,0.5,1.3
		c0.3,0.3,0.8,0.5,1.3,0.5c0.5,0,0.9-0.2,1.3-0.5c0.3-0.3,0.5-0.8,0.5-1.3C52.6,12.2,40.9,0.5,26.5,0.5L26.5,0.5z M26.5,15.8
		c-5.9,0-10.8,4.8-10.8,10.8s4.8,10.8,10.8,10.8s10.8-4.8,10.8-10.8S32.5,15.8,26.5,15.8z M26.5,19.4c4,0,7.2,3.2,7.2,7.2
		s-3.2,7.2-7.2,7.2s-7.2-3.2-7.2-7.2S22.5,19.4,26.5,19.4z M19.8,64.3l5.2,8.1c0.3,0.5,0.9,0.8,1.5,0.8s1.2-0.3,1.5-0.8l5.2-8.1
		c2.1,0.6,3.8,1.4,4.9,2.4c1.3,1,1.8,2,1.8,3c0,1.3-1.1,2.8-3.5,4.1c-2.4,1.3-6,2.2-10,2.2s-7.5-0.9-10-2.2
		c-2.4-1.3-3.5-2.8-3.5-4.1c0-1,0.5-2,1.8-3C16,65.7,17.7,64.9,19.8,64.3L19.8,64.3z"/>
</g>
</svg>
