<?xml version="1.0" encoding="utf-8"?>
<!-- Generator: Adobe Illustrator 25.4.1, SVG Export Plug-In . SVG Version: 6.00 Build 0)  -->
<svg version="1.1" id="Capa_1" xmlns="http://www.w3.org/2000/svg" xmlns:xlink="http://www.w3.org/1999/xlink" x="0px" y="0px"
	 viewBox="0 0 100 84.5" style="enable-background:new 0 0 100 84.5;" xml:space="preserve">
<g>
	<path d="M66.2,34.7l0.1,0.2v0c0.2,0.7,0.8,1.2,1.5,1.2h0c0.7,0,1.3-0.5,1.5-1.2c1-3.9,3.2-7.5,5.3-11.1c1.2-1.9,2.3-3.9,3.3-5.9v0
		c0.9-1.7,1.4-3.6,1.4-5.5c0-6.4-5-11.7-11.2-11.9c-0.1,0-0.1,0-0.2,0h-0.5c-0.1,0-0.1,0-0.2,0C61.2,0.7,56.2,6,56.2,12.4
		c0,1.9,0.5,3.8,1.4,5.5c1,2,2.2,4,3.3,5.9C63,27.3,65.2,30.9,66.2,34.7L66.2,34.7z M59.3,12.4c0-4.8,3.7-8.7,8.3-8.8
		c0,0,0.1,0,0.1,0h0.3c0,0,0.1,0,0.1,0c4.6,0.1,8.3,4,8.3,8.8c0,1.5-0.4,2.9-1.1,4.2c-0.9,1.9-2,3.8-3.2,5.7c-1.5,2.5-2.9,5-4.2,7.7
		c-1.2-2.6-2.6-5.2-4.2-7.7c-1.2-2-2.3-3.8-3.2-5.7l0,0C59.7,15.3,59.3,13.9,59.3,12.4L59.3,12.4z"/>
	<path d="M67.8,17.5c1.4,0,2.8-0.6,3.8-1.6c1-1,1.6-2.4,1.6-3.8s-0.6-2.8-1.6-3.8c-1-1-2.4-1.6-3.8-1.6S65,7.3,64,8.3
		c-1,1-1.6,2.4-1.6,3.8c0,1.4,0.6,2.8,1.6,3.8C65,16.9,66.4,17.5,67.8,17.5L67.8,17.5z M67.8,9.8c0.9,0,1.8,0.6,2.1,1.4
		c0.4,0.9,0.2,1.9-0.5,2.5c-0.7,0.7-1.7,0.9-2.5,0.5c-0.9-0.4-1.4-1.2-1.4-2.1C65.5,10.8,66.5,9.8,67.8,9.8L67.8,9.8z"/>
	<path d="M37.6,43.2l0.1,0.2v0c0.2,0.7,0.8,1.2,1.5,1.2h0c0.7,0,1.3-0.5,1.5-1.2c1-3.9,3.2-7.5,5.3-11.1c1.2-1.9,2.3-3.9,3.3-5.9v0
		c0.9-1.7,1.4-3.6,1.4-5.5c0-6.4-5-11.7-11.2-11.9c-0.1,0-0.1,0-0.2,0h-0.5c-0.1,0-0.1,0-0.2,0c-6.2,0.2-11.2,5.5-11.2,11.9
		c0,1.9,0.5,3.8,1.4,5.5c1,2,2.2,4,3.3,5.9C34.4,35.8,36.6,39.4,37.6,43.2L37.6,43.2z M30.7,20.9c0-4.8,3.7-8.7,8.3-8.8
		c0,0,0.1,0,0.1,0h0.3c0,0,0.1,0,0.1,0c4.6,0.1,8.3,4,8.3,8.8c0,1.5-0.4,2.9-1.1,4.2c-0.9,1.9-2,3.8-3.2,5.7c-1.5,2.5-2.9,5-4.2,7.7
		c-1.2-2.6-2.6-5.2-4.2-7.7c-1.2-2-2.3-3.8-3.2-5.7l0,0C31.1,23.8,30.7,22.4,30.7,20.9L30.7,20.9z"/>
	<path d="M39.2,26c1.4,0,2.8-0.6,3.8-1.6c1-1,1.6-2.4,1.6-3.8S44,17.8,43,16.8c-1-1-2.4-1.6-3.8-1.6s-2.8,0.6-3.8,1.6
		c-1,1-1.6,2.4-1.6,3.8c0,1.4,0.6,2.8,1.6,3.8C36.4,25.4,37.7,26,39.2,26L39.2,26z M39.2,18.3c0.9,0,1.8,0.6,2.1,1.4
		c0.4,0.9,0.2,1.9-0.5,2.5c-0.7,0.7-1.7,0.9-2.5,0.5c-0.9-0.4-1.4-1.2-1.4-2.1C36.9,19.3,37.9,18.3,39.2,18.3L39.2,18.3z"/>
	<path d="M74,48.5c0,1.4,0.6,2.8,1.6,3.8c1,1,2.4,1.6,3.8,1.6c1.4,0,2.8-0.6,3.8-1.6c1-1,1.6-2.4,1.6-3.8s-0.6-2.8-1.6-3.8
		c-1-1-2.4-1.6-3.8-1.6c-1.4,0-2.8,0.6-3.8,1.6C74.5,45.6,74,47,74,48.5L74,48.5z M81.7,48.5c0,0.9-0.6,1.8-1.4,2.1
		c-0.9,0.4-1.9,0.2-2.5-0.5c-0.7-0.7-0.9-1.7-0.5-2.5c0.4-0.9,1.2-1.4,2.1-1.4C80.7,46.1,81.7,47.2,81.7,48.5L81.7,48.5z"/>
	<path d="M15.2,48.5c0,1.4,0.6,2.8,1.6,3.8c1,1,2.4,1.6,3.8,1.6s2.8-0.6,3.8-1.6c1-1,1.6-2.4,1.6-3.8s-0.6-2.8-1.6-3.8
		c-1-1-2.4-1.6-3.8-1.6c-1.4,0-2.8,0.6-3.8,1.6C15.8,45.6,15.2,47,15.2,48.5L15.2,48.5z M22.9,48.5c0,0.9-0.6,1.8-1.4,2.1
		c-0.9,0.4-1.9,0.2-2.5-0.5c-0.7-0.7-0.9-1.7-0.5-2.5c0.4-0.9,1.2-1.4,2.1-1.4C21.9,46.1,22.9,47.2,22.9,48.5L22.9,48.5z"/>
	<path d="M96.9,53.4c0.6,0.6,1.6,0.6,2.2,0c0.6-0.6,0.6-1.6,0-2.2L80.5,32.7c-0.3-0.3-0.7-0.5-1.1-0.5s-0.8,0.2-1.1,0.5L59.7,51.2
		c-0.6,0.6-0.6,1.6,0,2.2c0.6,0.6,1.6,0.6,2.2,0l0.5-0.5v15.6H37.6V53l0.5,0.5c0.6,0.6,1.6,0.6,2.2,0c0.6-0.6,0.6-1.6,0-2.2
		L21.7,32.7c-0.3-0.3-0.7-0.5-1.1-0.5s-0.8,0.2-1.1,0.5L1,51.2c-0.6,0.6-0.6,1.6,0,2.2c0.6,0.6,1.6,0.6,2.2,0L3.6,53v15.6H2
		c-0.9,0-1.5,0.7-1.5,1.5s0.7,1.5,1.5,1.5H98c0.9,0,1.5-0.7,1.5-1.5s-0.7-1.5-1.5-1.5h-1.5V53L96.9,53.4z M24.5,68.6h-7.7v-4.6
		c0-0.9,0.7-1.5,1.5-1.5h4.6c0.9,0,1.5,0.7,1.5,1.5V68.6z M34.5,50v18.6h-7v-4.6c0-1.2-0.5-2.4-1.4-3.3c-0.9-0.9-2-1.4-3.3-1.4h-4.6
		c-1.2,0-2.4,0.5-3.3,1.4c-0.9,0.9-1.4,2-1.4,3.3v4.6h-7V50c0,0,0-0.1,0-0.1l13.9-13.9l13.9,13.9C34.5,49.9,34.5,50,34.5,50L34.5,50
		z M83.3,68.6h-7.7v-4.6c0-0.9,0.7-1.5,1.5-1.5h4.6c0.9,0,1.5,0.7,1.5,1.5V68.6z M93.3,50v18.6h-7v-4.6c0-1.2-0.5-2.4-1.4-3.3
		c-0.9-0.9-2-1.4-3.3-1.4h-4.6c-1.2,0-2.4,0.5-3.3,1.4c-0.9,0.9-1.4,2-1.4,3.3v4.6h-7V50c0,0,0-0.1,0-0.1l13.9-13.9l13.9,13.9
		C93.3,49.9,93.3,50,93.3,50L93.3,50z"/>
	<path d="M2,77.8h1.5c0.9,0,1.5-0.7,1.5-1.5s-0.7-1.5-1.5-1.5H2c-0.9,0-1.5,0.7-1.5,1.5S1.2,77.8,2,77.8z"/>
	<path d="M51.6,77.8c0.9,0,1.5-0.7,1.5-1.5s-0.7-1.5-1.5-1.5h-3.2c-0.9,0-1.5,0.7-1.5,1.5s0.7,1.5,1.5,1.5H51.6z"/>
	<path d="M70.8,77.8c0.9,0,1.5-0.7,1.5-1.5s-0.7-1.5-1.5-1.5h-3.2c-0.9,0-1.5,0.7-1.5,1.5s0.7,1.5,1.5,1.5H70.8z"/>
	<path d="M13.2,77.8c0.9,0,1.5-0.7,1.5-1.5s-0.7-1.5-1.5-1.5H10c-0.9,0-1.5,0.7-1.5,1.5s0.7,1.5,1.5,1.5H13.2z"/>
	<path d="M61.2,77.8c0.9,0,1.5-0.7,1.5-1.5s-0.7-1.5-1.5-1.5H58c-0.9,0-1.5,0.7-1.5,1.5s0.7,1.5,1.5,1.5H61.2z"/>
	<path d="M90,77.8c0.9,0,1.5-0.7,1.5-1.5s-0.7-1.5-1.5-1.5h-3.2c-0.9,0-1.5,0.7-1.5,1.5s0.7,1.5,1.5,1.5H90z"/>
	<path d="M80.4,77.8c0.9,0,1.5-0.7,1.5-1.5s-0.7-1.5-1.5-1.5h-3.2c-0.9,0-1.5,0.7-1.5,1.5s0.7,1.5,1.5,1.5H80.4z"/>
	<path d="M22.8,77.8c0.9,0,1.5-0.7,1.5-1.5s-0.7-1.5-1.5-1.5h-3.2c-0.9,0-1.5,0.7-1.5,1.5s0.7,1.5,1.5,1.5H22.8z"/>
	<path d="M32.4,77.8c0.9,0,1.5-0.7,1.5-1.5s-0.7-1.5-1.5-1.5h-3.2c-0.9,0-1.5,0.7-1.5,1.5s0.7,1.5,1.5,1.5H32.4z"/>
	<path d="M42,77.8c0.9,0,1.5-0.7,1.5-1.5s-0.7-1.5-1.5-1.5h-3.2c-0.9,0-1.5,0.7-1.5,1.5s0.7,1.5,1.5,1.5H42z"/>
	<path d="M98,74.7h-1.5c-0.9,0-1.5,0.7-1.5,1.5s0.7,1.5,1.5,1.5H98c0.9,0,1.5-0.7,1.5-1.5S98.8,74.7,98,74.7z"/>
	<path d="M98,80.9H2c-0.9,0-1.5,0.7-1.5,1.5C0.5,83.3,1.2,84,2,84H98c0.9,0,1.5-0.7,1.5-1.5S98.8,80.9,98,80.9z"/>
</g>
</svg>
