<?xml version="1.0" encoding="utf-8"?>
<!-- Generator: Adobe Illustrator 25.4.1, SVG Export Plug-In . SVG Version: 6.00 Build 0)  -->
<svg version="1.1" id="Capa_1" xmlns="http://www.w3.org/2000/svg" xmlns:xlink="http://www.w3.org/1999/xlink" x="0px" y="0px"
	 viewBox="0 0 750 1540" style="enable-background:new 0 0 750 1540;" xml:space="preserve">
<style type="text/css">
	.st0{fill:#FFA41C;}
	.st1{fill:none;stroke:#FFA41C;stroke-width:5;stroke-linecap:round;stroke-linejoin:round;stroke-miterlimit:10;}
	.st2{fill:#FFA41C;stroke:#FFA41C;stroke-width:5;stroke-linecap:round;stroke-linejoin:round;stroke-miterlimit:10;}
</style>
<symbol  id="Nuevo_símbolo" viewBox="-69.9 -67.2 139.9 134.4">
	<path class="st0" d="M0,64.7c-1.3,0-2.6-0.2-3.9-0.7c-2.5-1-4.5-2.8-5.7-5.2v0l-14.5-29.4c-0.3-0.7-1-1.1-1.7-1.3l-32.4-4.7
		c-2.7-0.4-5.1-1.8-6.8-3.8c-1.7-2.1-2.6-4.7-2.4-7.4c0.2-2.7,1.3-5.2,3.2-7.1l23.5-22.8c0.6-0.5,0.8-1.3,0.7-2.1l-5.6-32.3
		c-0.5-2.6,0.1-5.4,1.6-7.6c1.5-2.3,3.7-3.9,6.3-4.6c2.6-0.7,5.3-0.4,7.7,0.9l29,15.2c0.3,0.2,0.7,0.3,1,0.3V64.7z"/>
	<path class="st1" d="M66.9,16.1c0.6-1.9,0.7-3.9,0.2-5.9c-0.5-1.9-1.5-3.7-2.9-5.1L40.7-17.8c-0.6-0.5-0.8-1.3-0.7-2.1l5.5-32.3
		l0,0c0.5-2.6-0.1-5.4-1.6-7.6c-1.5-2.3-3.7-3.9-6.3-4.6c-2.6-0.7-5.3-0.4-7.7,0.9l-29,15.3c-0.7,0.3-1.4,0.3-2.1,0l-29-15.2
		c-2.4-1.3-5.1-1.6-7.7-0.9c-2.6,0.7-4.8,2.3-6.3,4.6c-1.5,2.3-2,5-1.6,7.6l5.6,32.3c0.2,0.8-0.1,1.6-0.7,2.1L-64.2,5.1
		c-1.9,1.9-3.1,4.4-3.2,7.1c-0.2,2.7,0.7,5.3,2.4,7.4c1.7,2.1,4.1,3.4,6.8,3.8l32.4,4.7c0.7,0.1,1.4,0.6,1.7,1.3l14.5,29.4v0
		c1.2,2.4,3.2,4.3,5.7,5.2c2.5,1,5.3,1,7.8,0c2.5-1,4.5-2.8,5.7-5.2l14.5-29.4v0c0.3-0.7,1-1.1,1.7-1.3l32.4-4.7
		c2-0.3,3.8-1.1,5.4-2.4C65.1,19.7,66.3,18,66.9,16.1L66.9,16.1z"/>
</symbol>
<symbol  id="Nuevo_símbolo_1" viewBox="-69.9 -67.2 139.9 134.4">
	<path class="st1" d="M66.9,16.1c0.6-1.9,0.7-3.9,0.2-5.9c-0.5-1.9-1.5-3.7-2.9-5.1L40.7-17.8c-0.6-0.5-0.8-1.3-0.7-2.1l5.5-32.3
		l0,0c0.5-2.6-0.1-5.4-1.6-7.6c-1.5-2.3-3.7-3.9-6.3-4.6c-2.6-0.7-5.3-0.4-7.7,0.9l-29,15.3c-0.7,0.3-1.4,0.3-2.1,0l-29-15.2
		c-2.4-1.3-5.1-1.6-7.7-0.9c-2.6,0.7-4.8,2.3-6.3,4.6c-1.5,2.3-2,5-1.6,7.6l5.6,32.3c0.2,0.8-0.1,1.6-0.7,2.1L-64.2,5.1
		c-1.9,1.9-3.1,4.4-3.2,7.1c-0.2,2.7,0.7,5.3,2.4,7.4c1.7,2.1,4.1,3.4,6.8,3.8l32.4,4.7c0.7,0.1,1.4,0.6,1.7,1.3l14.5,29.4v0
		c1.2,2.4,3.2,4.3,5.7,5.2c2.5,1,5.3,1,7.8,0c2.5-1,4.5-2.8,5.7-5.2l14.5-29.4v0c0.3-0.7,1-1.1,1.7-1.3l32.4-4.7
		c2-0.3,3.8-1.1,5.4-2.4C65.1,19.7,66.3,18,66.9,16.1L66.9,16.1z"/>
</symbol>
<g>
	<g>
		<path class="st2" d="M138.3,52.2c0.6,1.9,0.7,3.9,0.2,5.9c-0.5,1.9-1.5,3.7-2.9,5.1l-23.5,22.9c-0.6,0.5-0.8,1.3-0.7,2.1l5.5,32.3
			l0,0c0.5,2.6-0.1,5.4-1.6,7.6c-1.5,2.3-3.7,3.9-6.3,4.6c-2.6,0.7-5.3,0.4-7.7-0.9l-29-15.3c-0.7-0.3-1.4-0.3-2.1,0l-29,15.2
			c-2.4,1.3-5.1,1.6-7.7,0.9c-2.6-0.7-4.8-2.3-6.3-4.6c-1.5-2.3-2-5-1.6-7.6l5.6-32.3c0.2-0.8-0.1-1.6-0.7-2.1L7.2,63.2
			c-1.9-1.9-3.1-4.4-3.2-7.1c-0.2-2.7,0.7-5.3,2.4-7.4c1.7-2.1,4.1-3.4,6.8-3.8l32.4-4.7c0.7-0.1,1.4-0.6,1.7-1.3L61.8,9.6v0
			C63,7.2,65,5.3,67.5,4.3c2.5-1,5.3-1,7.8,0c2.5,1,4.5,2.8,5.7,5.2l14.5,29.4v0c0.3,0.7,1,1.1,1.7,1.3l32.4,4.7
			c2,0.3,3.8,1.1,5.4,2.4C136.6,48.6,137.7,50.3,138.3,52.2L138.3,52.2z"/>
	</g>
</g>
<g>
	<g>
		<path class="st2" d="M288.3,52.2c0.6,1.9,0.7,3.9,0.2,5.9c-0.5,1.9-1.5,3.7-2.9,5.1l-23.5,22.9c-0.6,0.5-0.8,1.3-0.7,2.1l5.5,32.3
			l0,0c0.5,2.6-0.1,5.4-1.6,7.6c-1.5,2.3-3.7,3.9-6.3,4.6c-2.6,0.7-5.3,0.4-7.7-0.9l-29-15.3c-0.7-0.3-1.4-0.3-2.1,0l-29,15.2
			c-2.4,1.3-5.1,1.6-7.7,0.9c-2.6-0.7-4.8-2.3-6.3-4.6c-1.5-2.3-2-5-1.6-7.6l5.6-32.3c0.2-0.8-0.1-1.6-0.7-2.1l-23.5-22.8
			c-1.9-1.9-3.1-4.4-3.2-7.1c-0.2-2.7,0.7-5.3,2.4-7.4c1.7-2.1,4.1-3.4,6.8-3.8l32.4-4.7c0.7-0.1,1.4-0.6,1.7-1.3l14.5-29.4v0
			c1.2-2.4,3.2-4.3,5.7-5.2c2.5-1,5.3-1,7.8,0c2.5,1,4.5,2.8,5.7,5.2l14.5,29.4v0c0.3,0.7,1,1.1,1.7,1.3l32.4,4.7
			c2,0.3,3.8,1.1,5.4,2.4C286.6,48.6,287.7,50.3,288.3,52.2L288.3,52.2z"/>
	</g>
</g>
<path class="st2" d="M438.3,52.2c0.6,1.9,0.7,3.9,0.2,5.9c-0.5,1.9-1.5,3.7-2.9,5.1l-23.5,22.9c-0.6,0.5-0.8,1.3-0.7,2.1l5.5,32.3
	l0,0c0.5,2.6-0.1,5.4-1.6,7.6c-1.5,2.3-3.7,3.9-6.3,4.6c-2.6,0.7-5.3,0.4-7.7-0.9l-29-15.3c-0.7-0.3-1.4-0.3-2.1,0l-29,15.2
	c-2.4,1.3-5.1,1.6-7.7,0.9c-2.6-0.7-4.8-2.3-6.3-4.6c-1.5-2.3-2-5-1.6-7.6l5.6-32.3c0.2-0.8-0.1-1.6-0.7-2.1l-23.5-22.8
	c-1.9-1.9-3.1-4.4-3.2-7.1c-0.2-2.7,0.7-5.3,2.4-7.4c1.7-2.1,4.1-3.4,6.8-3.8l32.4-4.7c0.7-0.1,1.4-0.6,1.7-1.3l14.5-29.4v0
	c1.2-2.4,3.2-4.3,5.7-5.2c2.5-1,5.3-1,7.8,0c2.5,1,4.5,2.8,5.7,5.2l14.5,29.4v0c0.3,0.7,1,1.1,1.7,1.3l32.4,4.7
	c2,0.3,3.8,1.1,5.4,2.4C436.6,48.6,437.7,50.3,438.3,52.2L438.3,52.2z"/>
<path class="st2" d="M588.3,52.2c0.6,1.9,0.7,3.9,0.2,5.9c-0.5,1.9-1.5,3.7-2.9,5.1l-23.5,22.9c-0.6,0.5-0.8,1.3-0.7,2.1l5.5,32.3
	l0,0c0.5,2.6-0.1,5.4-1.6,7.6c-1.5,2.3-3.7,3.9-6.3,4.6c-2.6,0.7-5.3,0.4-7.7-0.9l-29-15.3c-0.7-0.3-1.4-0.3-2.1,0l-29,15.2
	c-2.4,1.3-5.1,1.6-7.7,0.9c-2.6-0.7-4.8-2.3-6.3-4.6c-1.5-2.3-2-5-1.6-7.6l5.6-32.3c0.2-0.8-0.1-1.6-0.7-2.1l-23.5-22.8
	c-1.9-1.9-3.1-4.4-3.2-7.1c-0.2-2.7,0.7-5.3,2.4-7.4c1.7-2.1,4.1-3.4,6.8-3.8l32.4-4.7c0.7-0.1,1.4-0.6,1.7-1.3l14.5-29.4v0
	c1.2-2.4,3.2-4.3,5.7-5.2c2.5-1,5.3-1,7.8,0c2.5,1,4.5,2.8,5.7,5.2l14.5,29.4v0c0.3,0.7,1,1.1,1.7,1.3l32.4,4.7
	c2,0.3,3.8,1.1,5.4,2.4C586.6,48.6,587.7,50.3,588.3,52.2L588.3,52.2z"/>
<path class="st2" d="M738.3,52.2c0.6,1.9,0.7,3.9,0.2,5.9c-0.5,1.9-1.5,3.7-2.9,5.1l-23.5,22.9c-0.6,0.5-0.8,1.3-0.7,2.1l5.5,32.3
	l0,0c0.5,2.6-0.1,5.4-1.6,7.6c-1.5,2.3-3.7,3.9-6.3,4.6c-2.6,0.7-5.3,0.4-7.7-0.9l-29-15.3c-0.7-0.3-1.4-0.3-2.1,0l-29,15.2
	c-2.4,1.3-5.1,1.6-7.7,0.9c-2.6-0.7-4.8-2.3-6.3-4.6c-1.5-2.3-2-5-1.6-7.6l5.6-32.3c0.2-0.8-0.1-1.6-0.7-2.1l-23.5-22.8
	c-1.9-1.9-3.1-4.4-3.2-7.1c-0.2-2.7,0.7-5.3,2.4-7.4c1.7-2.1,4.1-3.4,6.8-3.8l32.4-4.7c0.7-0.1,1.4-0.6,1.7-1.3l14.5-29.4v0
	c1.2-2.4,3.2-4.3,5.7-5.2c2.5-1,5.3-1,7.8,0c2.5,1,4.5,2.8,5.7,5.2l14.5,29.4v0c0.3,0.7,1,1.1,1.7,1.3l32.4,4.7
	c2,0.3,3.8,1.1,5.4,2.4C736.6,48.6,737.7,50.3,738.3,52.2L738.3,52.2z"/>
<g>
	<g>
		<path class="st2" d="M138.3,192.2c0.6,1.9,0.7,3.9,0.2,5.9c-0.5,1.9-1.5,3.7-2.9,5.1l-23.5,22.9c-0.6,0.5-0.8,1.3-0.7,2.1
			l5.5,32.3l0,0c0.5,2.6-0.1,5.4-1.6,7.6c-1.5,2.3-3.7,3.9-6.3,4.6c-2.6,0.7-5.3,0.4-7.7-0.9l-29-15.3c-0.7-0.3-1.4-0.3-2.1,0
			l-29,15.2c-2.4,1.3-5.1,1.6-7.7,0.9c-2.6-0.7-4.8-2.3-6.3-4.6c-1.5-2.3-2-5-1.6-7.6l5.6-32.3c0.2-0.8-0.1-1.6-0.7-2.1L7.2,203.2
			c-1.9-1.9-3.1-4.4-3.2-7.1c-0.2-2.7,0.7-5.3,2.4-7.4c1.7-2.1,4.1-3.4,6.8-3.8l32.4-4.7c0.7-0.1,1.4-0.6,1.7-1.3l14.5-29.4v0
			c1.2-2.4,3.2-4.3,5.7-5.2c2.5-1,5.3-1,7.8,0c2.5,1,4.5,2.8,5.7,5.2l14.5,29.4v0c0.3,0.7,1,1.1,1.7,1.3l32.4,4.7
			c2,0.3,3.8,1.1,5.4,2.4C136.6,188.6,137.7,190.3,138.3,192.2L138.3,192.2z"/>
	</g>
</g>
<g>
	<g>
		<path class="st2" d="M288.3,192.2c0.6,1.9,0.7,3.9,0.2,5.9c-0.5,1.9-1.5,3.7-2.9,5.1l-23.5,22.9c-0.6,0.5-0.8,1.3-0.7,2.1
			l5.5,32.3l0,0c0.5,2.6-0.1,5.4-1.6,7.6c-1.5,2.3-3.7,3.9-6.3,4.6c-2.6,0.7-5.3,0.4-7.7-0.9l-29-15.3c-0.7-0.3-1.4-0.3-2.1,0
			l-29,15.2c-2.4,1.3-5.1,1.6-7.7,0.9c-2.6-0.7-4.8-2.3-6.3-4.6c-1.5-2.3-2-5-1.6-7.6l5.6-32.3c0.2-0.8-0.1-1.6-0.7-2.1l-23.5-22.8
			c-1.9-1.9-3.1-4.4-3.2-7.1c-0.2-2.7,0.7-5.3,2.4-7.4c1.7-2.1,4.1-3.4,6.8-3.8l32.4-4.7c0.7-0.1,1.4-0.6,1.7-1.3l14.5-29.4v0
			c1.2-2.4,3.2-4.3,5.7-5.2c2.5-1,5.3-1,7.8,0c2.5,1,4.5,2.8,5.7,5.2l14.5,29.4v0c0.3,0.7,1,1.1,1.7,1.3l32.4,4.7
			c2,0.3,3.8,1.1,5.4,2.4C286.6,188.6,287.7,190.3,288.3,192.2L288.3,192.2z"/>
	</g>
</g>
<path class="st2" d="M438.3,192.2c0.6,1.9,0.7,3.9,0.2,5.9c-0.5,1.9-1.5,3.7-2.9,5.1l-23.5,22.9c-0.6,0.5-0.8,1.3-0.7,2.1l5.5,32.3
	l0,0c0.5,2.6-0.1,5.4-1.6,7.6c-1.5,2.3-3.7,3.9-6.3,4.6c-2.6,0.7-5.3,0.4-7.7-0.9l-29-15.3c-0.7-0.3-1.4-0.3-2.1,0l-29,15.2
	c-2.4,1.3-5.1,1.6-7.7,0.9c-2.6-0.7-4.8-2.3-6.3-4.6c-1.5-2.3-2-5-1.6-7.6l5.6-32.3c0.2-0.8-0.1-1.6-0.7-2.1l-23.5-22.8
	c-1.9-1.9-3.1-4.4-3.2-7.1c-0.2-2.7,0.7-5.3,2.4-7.4c1.7-2.1,4.1-3.4,6.8-3.8l32.4-4.7c0.7-0.1,1.4-0.6,1.7-1.3l14.5-29.4v0
	c1.2-2.4,3.2-4.3,5.7-5.2c2.5-1,5.3-1,7.8,0c2.5,1,4.5,2.8,5.7,5.2l14.5,29.4v0c0.3,0.7,1,1.1,1.7,1.3l32.4,4.7
	c2,0.3,3.8,1.1,5.4,2.4C436.6,188.6,437.7,190.3,438.3,192.2L438.3,192.2z"/>
<path class="st2" d="M588.3,192.2c0.6,1.9,0.7,3.9,0.2,5.9c-0.5,1.9-1.5,3.7-2.9,5.1l-23.5,22.9c-0.6,0.5-0.8,1.3-0.7,2.1l5.5,32.3
	l0,0c0.5,2.6-0.1,5.4-1.6,7.6c-1.5,2.3-3.7,3.9-6.3,4.6c-2.6,0.7-5.3,0.4-7.7-0.9l-29-15.3c-0.7-0.3-1.4-0.3-2.1,0l-29,15.2
	c-2.4,1.3-5.1,1.6-7.7,0.9c-2.6-0.7-4.8-2.3-6.3-4.6c-1.5-2.3-2-5-1.6-7.6l5.6-32.3c0.2-0.8-0.1-1.6-0.7-2.1l-23.5-22.8
	c-1.9-1.9-3.1-4.4-3.2-7.1c-0.2-2.7,0.7-5.3,2.4-7.4c1.7-2.1,4.1-3.4,6.8-3.8l32.4-4.7c0.7-0.1,1.4-0.6,1.7-1.3l14.5-29.4v0
	c1.2-2.4,3.2-4.3,5.7-5.2c2.5-1,5.3-1,7.8,0c2.5,1,4.5,2.8,5.7,5.2l14.5,29.4v0c0.3,0.7,1,1.1,1.7,1.3l32.4,4.7
	c2,0.3,3.8,1.1,5.4,2.4C586.6,188.6,587.7,190.3,588.3,192.2L588.3,192.2z"/>
<g>
	<g>
		<path class="st2" d="M138.3,332.2c0.6,1.9,0.7,3.9,0.2,5.9c-0.5,1.9-1.5,3.7-2.9,5.1l-23.5,22.9c-0.6,0.5-0.8,1.3-0.7,2.1
			l5.5,32.3l0,0c0.5,2.6-0.1,5.4-1.6,7.6c-1.5,2.3-3.7,3.9-6.3,4.6c-2.6,0.7-5.3,0.4-7.7-0.9l-29-15.3c-0.7-0.3-1.4-0.3-2.1,0
			l-29,15.2c-2.4,1.3-5.1,1.6-7.7,0.9c-2.6-0.7-4.8-2.3-6.3-4.6c-1.5-2.3-2-5-1.6-7.6l5.6-32.3c0.2-0.8-0.1-1.6-0.7-2.1L7.2,343.2
			c-1.9-1.9-3.1-4.4-3.2-7.1c-0.2-2.7,0.7-5.3,2.4-7.4c1.7-2.1,4.1-3.4,6.8-3.8l32.4-4.7c0.7-0.1,1.4-0.6,1.7-1.3l14.5-29.4v0
			c1.2-2.4,3.2-4.3,5.7-5.2c2.5-1,5.3-1,7.8,0c2.5,1,4.5,2.8,5.7,5.2l14.5,29.4v0c0.3,0.7,1,1.1,1.7,1.3l32.4,4.7
			c2,0.3,3.8,1.1,5.4,2.4C136.6,328.6,137.7,330.3,138.3,332.2L138.3,332.2z"/>
	</g>
</g>
<g>
	<g>
		<path class="st2" d="M288.3,332.2c0.6,1.9,0.7,3.9,0.2,5.9c-0.5,1.9-1.5,3.7-2.9,5.1l-23.5,22.9c-0.6,0.5-0.8,1.3-0.7,2.1
			l5.5,32.3l0,0c0.5,2.6-0.1,5.4-1.6,7.6c-1.5,2.3-3.7,3.9-6.3,4.6c-2.6,0.7-5.3,0.4-7.7-0.9l-29-15.3c-0.7-0.3-1.4-0.3-2.1,0
			l-29,15.2c-2.4,1.3-5.1,1.6-7.7,0.9c-2.6-0.7-4.8-2.3-6.3-4.6c-1.5-2.3-2-5-1.6-7.6l5.6-32.3c0.2-0.8-0.1-1.6-0.7-2.1l-23.5-22.8
			c-1.9-1.9-3.1-4.4-3.2-7.1c-0.2-2.7,0.7-5.3,2.4-7.4c1.7-2.1,4.1-3.4,6.8-3.8l32.4-4.7c0.7-0.1,1.4-0.6,1.7-1.3l14.5-29.4v0
			c1.2-2.4,3.2-4.3,5.7-5.2c2.5-1,5.3-1,7.8,0c2.5,1,4.5,2.8,5.7,5.2l14.5,29.4v0c0.3,0.7,1,1.1,1.7,1.3l32.4,4.7
			c2,0.3,3.8,1.1,5.4,2.4C286.6,328.6,287.7,330.3,288.3,332.2L288.3,332.2z"/>
	</g>
</g>
<path class="st2" d="M438.3,332.2c0.6,1.9,0.7,3.9,0.2,5.9c-0.5,1.9-1.5,3.7-2.9,5.1l-23.5,22.9c-0.6,0.5-0.8,1.3-0.7,2.1l5.5,32.3
	l0,0c0.5,2.6-0.1,5.4-1.6,7.6c-1.5,2.3-3.7,3.9-6.3,4.6c-2.6,0.7-5.3,0.4-7.7-0.9l-29-15.3c-0.7-0.3-1.4-0.3-2.1,0l-29,15.2
	c-2.4,1.3-5.1,1.6-7.7,0.9c-2.6-0.7-4.8-2.3-6.3-4.6c-1.5-2.3-2-5-1.6-7.6l5.6-32.3c0.2-0.8-0.1-1.6-0.7-2.1l-23.5-22.8
	c-1.9-1.9-3.1-4.4-3.2-7.1c-0.2-2.7,0.7-5.3,2.4-7.4c1.7-2.1,4.1-3.4,6.8-3.8l32.4-4.7c0.7-0.1,1.4-0.6,1.7-1.3l14.5-29.4v0
	c1.2-2.4,3.2-4.3,5.7-5.2c2.5-1,5.3-1,7.8,0c2.5,1,4.5,2.8,5.7,5.2l14.5,29.4v0c0.3,0.7,1,1.1,1.7,1.3l32.4,4.7
	c2,0.3,3.8,1.1,5.4,2.4C436.6,328.6,437.7,330.3,438.3,332.2L438.3,332.2z"/>
<path class="st2" d="M588.3,332.2c0.6,1.9,0.7,3.9,0.2,5.9c-0.5,1.9-1.5,3.7-2.9,5.1l-23.5,22.9c-0.6,0.5-0.8,1.3-0.7,2.1l5.5,32.3
	l0,0c0.5,2.6-0.1,5.4-1.6,7.6c-1.5,2.3-3.7,3.9-6.3,4.6c-2.6,0.7-5.3,0.4-7.7-0.9l-29-15.3c-0.7-0.3-1.4-0.3-2.1,0l-29,15.2
	c-2.4,1.3-5.1,1.6-7.7,0.9c-2.6-0.7-4.8-2.3-6.3-4.6c-1.5-2.3-2-5-1.6-7.6l5.6-32.3c0.2-0.8-0.1-1.6-0.7-2.1l-23.5-22.8
	c-1.9-1.9-3.1-4.4-3.2-7.1c-0.2-2.7,0.7-5.3,2.4-7.4c1.7-2.1,4.1-3.4,6.8-3.8l32.4-4.7c0.7-0.1,1.4-0.6,1.7-1.3l14.5-29.4v0
	c1.2-2.4,3.2-4.3,5.7-5.2c2.5-1,5.3-1,7.8,0c2.5,1,4.5,2.8,5.7,5.2l14.5,29.4v0c0.3,0.7,1,1.1,1.7,1.3l32.4,4.7
	c2,0.3,3.8,1.1,5.4,2.4C586.6,328.6,587.7,330.3,588.3,332.2L588.3,332.2z"/>
<g>
	<g>
		<path class="st2" d="M138.3,472.2c0.6,1.9,0.7,3.9,0.2,5.9c-0.5,1.9-1.5,3.7-2.9,5.1l-23.5,22.9c-0.6,0.5-0.8,1.3-0.7,2.1
			l5.5,32.3l0,0c0.5,2.6-0.1,5.4-1.6,7.6c-1.5,2.3-3.7,3.9-6.3,4.6c-2.6,0.7-5.3,0.4-7.7-0.9l-29-15.3c-0.7-0.3-1.4-0.3-2.1,0
			l-29,15.2c-2.4,1.3-5.1,1.6-7.7,0.9c-2.6-0.7-4.8-2.3-6.3-4.6c-1.5-2.3-2-5-1.6-7.6l5.6-32.3c0.2-0.8-0.1-1.6-0.7-2.1L7.2,483.2
			c-1.9-1.9-3.1-4.4-3.2-7.1c-0.2-2.7,0.7-5.3,2.4-7.4c1.7-2.1,4.1-3.4,6.8-3.8l32.4-4.7c0.7-0.1,1.4-0.6,1.7-1.3l14.5-29.4v0
			c1.2-2.4,3.2-4.3,5.7-5.2c2.5-1,5.3-1,7.8,0c2.5,1,4.5,2.8,5.7,5.2l14.5,29.4v0c0.3,0.7,1,1.1,1.7,1.3l32.4,4.7
			c2,0.3,3.8,1.1,5.4,2.4C136.6,468.6,137.7,470.3,138.3,472.2L138.3,472.2z"/>
	</g>
</g>
<g>
	<g>
		<path class="st2" d="M288.3,472.2c0.6,1.9,0.7,3.9,0.2,5.9c-0.5,1.9-1.5,3.7-2.9,5.1l-23.5,22.9c-0.6,0.5-0.8,1.3-0.7,2.1
			l5.5,32.3l0,0c0.5,2.6-0.1,5.4-1.6,7.6c-1.5,2.3-3.7,3.9-6.3,4.6c-2.6,0.7-5.3,0.4-7.7-0.9l-29-15.3c-0.7-0.3-1.4-0.3-2.1,0
			l-29,15.2c-2.4,1.3-5.1,1.6-7.7,0.9c-2.6-0.7-4.8-2.3-6.3-4.6c-1.5-2.3-2-5-1.6-7.6l5.6-32.3c0.2-0.8-0.1-1.6-0.7-2.1l-23.5-22.8
			c-1.9-1.9-3.1-4.4-3.2-7.1c-0.2-2.7,0.7-5.3,2.4-7.4c1.7-2.1,4.1-3.4,6.8-3.8l32.4-4.7c0.7-0.1,1.4-0.6,1.7-1.3l14.5-29.4v0
			c1.2-2.4,3.2-4.3,5.7-5.2c2.5-1,5.3-1,7.8,0c2.5,1,4.5,2.8,5.7,5.2l14.5,29.4v0c0.3,0.7,1,1.1,1.7,1.3l32.4,4.7
			c2,0.3,3.8,1.1,5.4,2.4C286.6,468.6,287.7,470.3,288.3,472.2L288.3,472.2z"/>
	</g>
</g>
<path class="st2" d="M438.3,472.2c0.6,1.9,0.7,3.9,0.2,5.9c-0.5,1.9-1.5,3.7-2.9,5.1l-23.5,22.9c-0.6,0.5-0.8,1.3-0.7,2.1l5.5,32.3
	l0,0c0.5,2.6-0.1,5.4-1.6,7.6c-1.5,2.3-3.7,3.9-6.3,4.6c-2.6,0.7-5.3,0.4-7.7-0.9l-29-15.3c-0.7-0.3-1.4-0.3-2.1,0l-29,15.2
	c-2.4,1.3-5.1,1.6-7.7,0.9c-2.6-0.7-4.8-2.3-6.3-4.6c-1.5-2.3-2-5-1.6-7.6l5.6-32.3c0.2-0.8-0.1-1.6-0.7-2.1l-23.5-22.8
	c-1.9-1.9-3.1-4.4-3.2-7.1c-0.2-2.7,0.7-5.3,2.4-7.4c1.7-2.1,4.1-3.4,6.8-3.8l32.4-4.7c0.7-0.1,1.4-0.6,1.7-1.3l14.5-29.4v0
	c1.2-2.4,3.2-4.3,5.7-5.2c2.5-1,5.3-1,7.8,0c2.5,1,4.5,2.8,5.7,5.2l14.5,29.4v0c0.3,0.7,1,1.1,1.7,1.3l32.4,4.7
	c2,0.3,3.8,1.1,5.4,2.4C436.6,468.6,437.7,470.3,438.3,472.2L438.3,472.2z"/>
<path class="st1" d="M738.3,472.2c0.6,1.9,0.7,3.9,0.2,5.9c-0.5,1.9-1.5,3.7-2.9,5.1l-23.5,22.9c-0.6,0.5-0.8,1.3-0.7,2.1l5.5,32.3
	l0,0c0.5,2.6-0.1,5.4-1.6,7.6c-1.5,2.3-3.7,3.9-6.3,4.6c-2.6,0.7-5.3,0.4-7.7-0.9l-29-15.3c-0.7-0.3-1.4-0.3-2.1,0l-29,15.2
	c-2.4,1.3-5.1,1.6-7.7,0.9c-2.6-0.7-4.8-2.3-6.3-4.6c-1.5-2.3-2-5-1.6-7.6l5.6-32.3c0.2-0.8-0.1-1.6-0.7-2.1l-23.5-22.8
	c-1.9-1.9-3.1-4.4-3.2-7.1c-0.2-2.7,0.7-5.3,2.4-7.4c1.7-2.1,4.1-3.4,6.8-3.8l32.4-4.7c0.7-0.1,1.4-0.6,1.7-1.3l14.5-29.4v0
	c1.2-2.4,3.2-4.3,5.7-5.2c2.5-1,5.3-1,7.8,0c2.5,1,4.5,2.8,5.7,5.2l14.5,29.4v0c0.3,0.7,1,1.1,1.7,1.3l32.4,4.7
	c2,0.3,3.8,1.1,5.4,2.4C736.6,468.6,737.7,470.3,738.3,472.2L738.3,472.2z"/>
<g>
	<g>
		<path class="st2" d="M138.3,612.2c0.6,1.9,0.7,3.9,0.2,5.9c-0.5,1.9-1.5,3.7-2.9,5.1l-23.5,22.9c-0.6,0.5-0.8,1.3-0.7,2.1
			l5.5,32.3l0,0c0.5,2.6-0.1,5.4-1.6,7.6c-1.5,2.3-3.7,3.9-6.3,4.6c-2.6,0.7-5.3,0.4-7.7-0.9l-29-15.3c-0.7-0.3-1.4-0.3-2.1,0
			l-29,15.2c-2.4,1.3-5.1,1.6-7.7,0.9c-2.6-0.7-4.8-2.3-6.3-4.6c-1.5-2.3-2-5-1.6-7.6l5.6-32.3c0.2-0.8-0.1-1.6-0.7-2.1L7.2,623.2
			c-1.9-1.9-3.1-4.4-3.2-7.1c-0.2-2.7,0.7-5.3,2.4-7.4c1.7-2.1,4.1-3.4,6.8-3.8l32.4-4.7c0.7-0.1,1.4-0.6,1.7-1.3l14.5-29.4v0
			c1.2-2.4,3.2-4.3,5.7-5.2c2.5-1,5.3-1,7.8,0c2.5,1,4.5,2.8,5.7,5.2l14.5,29.4v0c0.3,0.7,1,1.1,1.7,1.3l32.4,4.7
			c2,0.3,3.8,1.1,5.4,2.4C136.6,608.6,137.7,610.3,138.3,612.2L138.3,612.2z"/>
	</g>
</g>
<g>
	<g>
		<path class="st2" d="M288.3,612.2c0.6,1.9,0.7,3.9,0.2,5.9c-0.5,1.9-1.5,3.7-2.9,5.1l-23.5,22.9c-0.6,0.5-0.8,1.3-0.7,2.1
			l5.5,32.3l0,0c0.5,2.6-0.1,5.4-1.6,7.6c-1.5,2.3-3.7,3.9-6.3,4.6c-2.6,0.7-5.3,0.4-7.7-0.9l-29-15.3c-0.7-0.3-1.4-0.3-2.1,0
			l-29,15.2c-2.4,1.3-5.1,1.6-7.7,0.9c-2.6-0.7-4.8-2.3-6.3-4.6c-1.5-2.3-2-5-1.6-7.6l5.6-32.3c0.2-0.8-0.1-1.6-0.7-2.1l-23.5-22.8
			c-1.9-1.9-3.1-4.4-3.2-7.1c-0.2-2.7,0.7-5.3,2.4-7.4c1.7-2.1,4.1-3.4,6.8-3.8l32.4-4.7c0.7-0.1,1.4-0.6,1.7-1.3l14.5-29.4v0
			c1.2-2.4,3.2-4.3,5.7-5.2c2.5-1,5.3-1,7.8,0c2.5,1,4.5,2.8,5.7,5.2l14.5,29.4v0c0.3,0.7,1,1.1,1.7,1.3l32.4,4.7
			c2,0.3,3.8,1.1,5.4,2.4S287.7,610.3,288.3,612.2L288.3,612.2z"/>
	</g>
</g>
<path class="st2" d="M438.3,612.2c0.6,1.9,0.7,3.9,0.2,5.9c-0.5,1.9-1.5,3.7-2.9,5.1l-23.5,22.9c-0.6,0.5-0.8,1.3-0.7,2.1l5.5,32.3
	l0,0c0.5,2.6-0.1,5.4-1.6,7.6c-1.5,2.3-3.7,3.9-6.3,4.6c-2.6,0.7-5.3,0.4-7.7-0.9l-29-15.3c-0.7-0.3-1.4-0.3-2.1,0l-29,15.2
	c-2.4,1.3-5.1,1.6-7.7,0.9c-2.6-0.7-4.8-2.3-6.3-4.6c-1.5-2.3-2-5-1.6-7.6l5.6-32.3c0.2-0.8-0.1-1.6-0.7-2.1l-23.5-22.8
	c-1.9-1.9-3.1-4.4-3.2-7.1c-0.2-2.7,0.7-5.3,2.4-7.4c1.7-2.1,4.1-3.4,6.8-3.8l32.4-4.7c0.7-0.1,1.4-0.6,1.7-1.3l14.5-29.4v0
	c1.2-2.4,3.2-4.3,5.7-5.2c2.5-1,5.3-1,7.8,0c2.5,1,4.5,2.8,5.7,5.2l14.5,29.4v0c0.3,0.7,1,1.1,1.7,1.3l32.4,4.7
	c2,0.3,3.8,1.1,5.4,2.4S437.7,610.3,438.3,612.2L438.3,612.2z"/>
<path class="st1" d="M588.3,612.2c0.6,1.9,0.7,3.9,0.2,5.9c-0.5,1.9-1.5,3.7-2.9,5.1l-23.5,22.9c-0.6,0.5-0.8,1.3-0.7,2.1l5.5,32.3
	l0,0c0.5,2.6-0.1,5.4-1.6,7.6c-1.5,2.3-3.7,3.9-6.3,4.6c-2.6,0.7-5.3,0.4-7.7-0.9l-29-15.3c-0.7-0.3-1.4-0.3-2.1,0l-29,15.2
	c-2.4,1.3-5.1,1.6-7.7,0.9c-2.6-0.7-4.8-2.3-6.3-4.6c-1.5-2.3-2-5-1.6-7.6l5.6-32.3c0.2-0.8-0.1-1.6-0.7-2.1l-23.5-22.8
	c-1.9-1.9-3.1-4.4-3.2-7.1c-0.2-2.7,0.7-5.3,2.4-7.4c1.7-2.1,4.1-3.4,6.8-3.8l32.4-4.7c0.7-0.1,1.4-0.6,1.7-1.3l14.5-29.4v0
	c1.2-2.4,3.2-4.3,5.7-5.2c2.5-1,5.3-1,7.8,0c2.5,1,4.5,2.8,5.7,5.2l14.5,29.4v0c0.3,0.7,1,1.1,1.7,1.3l32.4,4.7
	c2,0.3,3.8,1.1,5.4,2.4C586.6,608.6,587.7,610.3,588.3,612.2L588.3,612.2z"/>
<path class="st1" d="M738.3,612.2c0.6,1.9,0.7,3.9,0.2,5.9c-0.5,1.9-1.5,3.7-2.9,5.1l-23.5,22.9c-0.6,0.5-0.8,1.3-0.7,2.1l5.5,32.3
	l0,0c0.5,2.6-0.1,5.4-1.6,7.6c-1.5,2.3-3.7,3.9-6.3,4.6c-2.6,0.7-5.3,0.4-7.7-0.9l-29-15.3c-0.7-0.3-1.4-0.3-2.1,0l-29,15.2
	c-2.4,1.3-5.1,1.6-7.7,0.9c-2.6-0.7-4.8-2.3-6.3-4.6c-1.5-2.3-2-5-1.6-7.6l5.6-32.3c0.2-0.8-0.1-1.6-0.7-2.1l-23.5-22.8
	c-1.9-1.9-3.1-4.4-3.2-7.1c-0.2-2.7,0.7-5.3,2.4-7.4c1.7-2.1,4.1-3.4,6.8-3.8l32.4-4.7c0.7-0.1,1.4-0.6,1.7-1.3l14.5-29.4v0
	c1.2-2.4,3.2-4.3,5.7-5.2c2.5-1,5.3-1,7.8,0c2.5,1,4.5,2.8,5.7,5.2l14.5,29.4v0c0.3,0.7,1,1.1,1.7,1.3l32.4,4.7
	c2,0.3,3.8,1.1,5.4,2.4C736.6,608.6,737.7,610.3,738.3,612.2L738.3,612.2z"/>
<g>
	<g>
		<path class="st2" d="M138.3,752.2c0.6,1.9,0.7,3.9,0.2,5.9c-0.5,1.9-1.5,3.7-2.9,5.1l-23.5,22.9c-0.6,0.5-0.8,1.3-0.7,2.1
			l5.5,32.3l0,0c0.5,2.6-0.1,5.4-1.6,7.6c-1.5,2.3-3.7,3.9-6.3,4.6c-2.6,0.7-5.3,0.4-7.7-0.9l-29-15.3c-0.7-0.3-1.4-0.3-2.1,0
			l-29,15.2c-2.4,1.3-5.1,1.6-7.7,0.9c-2.6-0.7-4.8-2.3-6.3-4.6c-1.5-2.3-2-5-1.6-7.6l5.6-32.3c0.2-0.8-0.1-1.6-0.7-2.1L7.2,763.2
			c-1.9-1.9-3.1-4.4-3.2-7.1c-0.2-2.7,0.7-5.3,2.4-7.4c1.7-2.1,4.1-3.4,6.8-3.8l32.4-4.7c0.7-0.1,1.4-0.6,1.7-1.3l14.5-29.4v0
			c1.2-2.4,3.2-4.3,5.7-5.2c2.5-1,5.3-1,7.8,0c2.5,1,4.5,2.8,5.7,5.2l14.5,29.4v0c0.3,0.7,1,1.1,1.7,1.3l32.4,4.7
			c2,0.3,3.8,1.1,5.4,2.4C136.6,748.6,137.7,750.3,138.3,752.2L138.3,752.2z"/>
	</g>
</g>
<g>
	<g>
		<path class="st2" d="M288.3,752.2c0.6,1.9,0.7,3.9,0.2,5.9c-0.5,1.9-1.5,3.7-2.9,5.1l-23.5,22.9c-0.6,0.5-0.8,1.3-0.7,2.1
			l5.5,32.3l0,0c0.5,2.6-0.1,5.4-1.6,7.6c-1.5,2.3-3.7,3.9-6.3,4.6c-2.6,0.7-5.3,0.4-7.7-0.9l-29-15.3c-0.7-0.3-1.4-0.3-2.1,0
			l-29,15.2c-2.4,1.3-5.1,1.6-7.7,0.9c-2.6-0.7-4.8-2.3-6.3-4.6c-1.5-2.3-2-5-1.6-7.6l5.6-32.3c0.2-0.8-0.1-1.6-0.7-2.1l-23.5-22.8
			c-1.9-1.9-3.1-4.4-3.2-7.1c-0.2-2.7,0.7-5.3,2.4-7.4c1.7-2.1,4.1-3.4,6.8-3.8l32.4-4.7c0.7-0.1,1.4-0.6,1.7-1.3l14.5-29.4v0
			c1.2-2.4,3.2-4.3,5.7-5.2c2.5-1,5.3-1,7.8,0c2.5,1,4.5,2.8,5.7,5.2l14.5,29.4v0c0.3,0.7,1,1.1,1.7,1.3l32.4,4.7
			c2,0.3,3.8,1.1,5.4,2.4S287.7,750.3,288.3,752.2L288.3,752.2z"/>
	</g>
</g>
<path class="st1" d="M588.3,752.2c0.6,1.9,0.7,3.9,0.2,5.9c-0.5,1.9-1.5,3.7-2.9,5.1l-23.5,22.9c-0.6,0.5-0.8,1.3-0.7,2.1l5.5,32.3
	l0,0c0.5,2.6-0.1,5.4-1.6,7.6c-1.5,2.3-3.7,3.9-6.3,4.6c-2.6,0.7-5.3,0.4-7.7-0.9l-29-15.3c-0.7-0.3-1.4-0.3-2.1,0l-29,15.2
	c-2.4,1.3-5.1,1.6-7.7,0.9c-2.6-0.7-4.8-2.3-6.3-4.6c-1.5-2.3-2-5-1.6-7.6l5.6-32.3c0.2-0.8-0.1-1.6-0.7-2.1l-23.5-22.8
	c-1.9-1.9-3.1-4.4-3.2-7.1c-0.2-2.7,0.7-5.3,2.4-7.4c1.7-2.1,4.1-3.4,6.8-3.8l32.4-4.7c0.7-0.1,1.4-0.6,1.7-1.3l14.5-29.4v0
	c1.2-2.4,3.2-4.3,5.7-5.2c2.5-1,5.3-1,7.8,0c2.5,1,4.5,2.8,5.7,5.2l14.5,29.4v0c0.3,0.7,1,1.1,1.7,1.3l32.4,4.7
	c2,0.3,3.8,1.1,5.4,2.4C586.6,748.6,587.7,750.3,588.3,752.2L588.3,752.2z"/>
<path class="st1" d="M738.3,752.2c0.6,1.9,0.7,3.9,0.2,5.9c-0.5,1.9-1.5,3.7-2.9,5.1l-23.5,22.9c-0.6,0.5-0.8,1.3-0.7,2.1l5.5,32.3
	l0,0c0.5,2.6-0.1,5.4-1.6,7.6c-1.5,2.3-3.7,3.9-6.3,4.6c-2.6,0.7-5.3,0.4-7.7-0.9l-29-15.3c-0.7-0.3-1.4-0.3-2.1,0l-29,15.2
	c-2.4,1.3-5.1,1.6-7.7,0.9c-2.6-0.7-4.8-2.3-6.3-4.6c-1.5-2.3-2-5-1.6-7.6l5.6-32.3c0.2-0.8-0.1-1.6-0.7-2.1l-23.5-22.8
	c-1.9-1.9-3.1-4.4-3.2-7.1c-0.2-2.7,0.7-5.3,2.4-7.4c1.7-2.1,4.1-3.4,6.8-3.8l32.4-4.7c0.7-0.1,1.4-0.6,1.7-1.3l14.5-29.4v0
	c1.2-2.4,3.2-4.3,5.7-5.2c2.5-1,5.3-1,7.8,0c2.5,1,4.5,2.8,5.7,5.2l14.5,29.4v0c0.3,0.7,1,1.1,1.7,1.3l32.4,4.7
	c2,0.3,3.8,1.1,5.4,2.4C736.6,748.6,737.7,750.3,738.3,752.2L738.3,752.2z"/>
<g>
	<g>
		<path class="st2" d="M138.3,892.2c0.6,1.9,0.7,3.9,0.2,5.9c-0.5,1.9-1.5,3.7-2.9,5.1l-23.5,22.9c-0.6,0.5-0.8,1.3-0.7,2.1
			l5.5,32.3l0,0c0.5,2.6-0.1,5.4-1.6,7.6c-1.5,2.3-3.7,3.9-6.3,4.6c-2.6,0.7-5.3,0.4-7.7-0.9l-29-15.3c-0.7-0.3-1.4-0.3-2.1,0
			l-29,15.2c-2.4,1.3-5.1,1.6-7.7,0.9c-2.6-0.7-4.8-2.3-6.3-4.6c-1.5-2.3-2-5-1.6-7.6l5.6-32.3c0.2-0.8-0.1-1.6-0.7-2.1L7.2,903.2
			c-1.9-1.9-3.1-4.4-3.2-7.1c-0.2-2.7,0.7-5.3,2.4-7.4c1.7-2.1,4.1-3.4,6.8-3.8l32.4-4.7c0.7-0.1,1.4-0.6,1.7-1.3l14.5-29.4v0
			c1.2-2.4,3.2-4.3,5.7-5.2c2.5-1,5.3-1,7.8,0c2.5,1,4.5,2.8,5.7,5.2l14.5,29.4v0c0.3,0.7,1,1.1,1.7,1.3l32.4,4.7
			c2,0.3,3.8,1.1,5.4,2.4C136.6,888.6,137.7,890.3,138.3,892.2L138.3,892.2z"/>
	</g>
</g>
<g>
	<g>
		<path class="st2" d="M288.3,892.2c0.6,1.9,0.7,3.9,0.2,5.9c-0.5,1.9-1.5,3.7-2.9,5.1l-23.5,22.9c-0.6,0.5-0.8,1.3-0.7,2.1
			l5.5,32.3l0,0c0.5,2.6-0.1,5.4-1.6,7.6c-1.5,2.3-3.7,3.9-6.3,4.6c-2.6,0.7-5.3,0.4-7.7-0.9l-29-15.3c-0.7-0.3-1.4-0.3-2.1,0
			l-29,15.2c-2.4,1.3-5.1,1.6-7.7,0.9c-2.6-0.7-4.8-2.3-6.3-4.6c-1.5-2.3-2-5-1.6-7.6l5.6-32.3c0.2-0.8-0.1-1.6-0.7-2.1l-23.5-22.8
			c-1.9-1.9-3.1-4.4-3.2-7.1c-0.2-2.7,0.7-5.3,2.4-7.4c1.7-2.1,4.1-3.4,6.8-3.8l32.4-4.7c0.7-0.1,1.4-0.6,1.7-1.3l14.5-29.4v0
			c1.2-2.4,3.2-4.3,5.7-5.2c2.5-1,5.3-1,7.8,0c2.5,1,4.5,2.8,5.7,5.2l14.5,29.4v0c0.3,0.7,1,1.1,1.7,1.3l32.4,4.7
			c2,0.3,3.8,1.1,5.4,2.4S287.7,890.3,288.3,892.2L288.3,892.2z"/>
	</g>
</g>
<path class="st1" d="M438.3,892.2c0.6,1.9,0.7,3.9,0.2,5.9c-0.5,1.9-1.5,3.7-2.9,5.1l-23.5,22.9c-0.6,0.5-0.8,1.3-0.7,2.1l5.5,32.3
	l0,0c0.5,2.6-0.1,5.4-1.6,7.6c-1.5,2.3-3.7,3.9-6.3,4.6c-2.6,0.7-5.3,0.4-7.7-0.9l-29-15.3c-0.7-0.3-1.4-0.3-2.1,0l-29,15.2
	c-2.4,1.3-5.1,1.6-7.7,0.9c-2.6-0.7-4.8-2.3-6.3-4.6c-1.5-2.3-2-5-1.6-7.6l5.6-32.3c0.2-0.8-0.1-1.6-0.7-2.1l-23.5-22.8
	c-1.9-1.9-3.1-4.4-3.2-7.1c-0.2-2.7,0.7-5.3,2.4-7.4c1.7-2.1,4.1-3.4,6.8-3.8l32.4-4.7c0.7-0.1,1.4-0.6,1.7-1.3l14.5-29.4v0
	c1.2-2.4,3.2-4.3,5.7-5.2c2.5-1,5.3-1,7.8,0c2.5,1,4.5,2.8,5.7,5.2l14.5,29.4v0c0.3,0.7,1,1.1,1.7,1.3l32.4,4.7
	c2,0.3,3.8,1.1,5.4,2.4S437.7,890.3,438.3,892.2L438.3,892.2z"/>
<path class="st1" d="M588.3,892.2c0.6,1.9,0.7,3.9,0.2,5.9c-0.5,1.9-1.5,3.7-2.9,5.1l-23.5,22.9c-0.6,0.5-0.8,1.3-0.7,2.1l5.5,32.3
	l0,0c0.5,2.6-0.1,5.4-1.6,7.6c-1.5,2.3-3.7,3.9-6.3,4.6c-2.6,0.7-5.3,0.4-7.7-0.9l-29-15.3c-0.7-0.3-1.4-0.3-2.1,0l-29,15.2
	c-2.4,1.3-5.1,1.6-7.7,0.9c-2.6-0.7-4.8-2.3-6.3-4.6c-1.5-2.3-2-5-1.6-7.6l5.6-32.3c0.2-0.8-0.1-1.6-0.7-2.1l-23.5-22.8
	c-1.9-1.9-3.1-4.4-3.2-7.1c-0.2-2.7,0.7-5.3,2.4-7.4c1.7-2.1,4.1-3.4,6.8-3.8l32.4-4.7c0.7-0.1,1.4-0.6,1.7-1.3l14.5-29.4v0
	c1.2-2.4,3.2-4.3,5.7-5.2c2.5-1,5.3-1,7.8,0c2.5,1,4.5,2.8,5.7,5.2l14.5,29.4v0c0.3,0.7,1,1.1,1.7,1.3l32.4,4.7
	c2,0.3,3.8,1.1,5.4,2.4C586.6,888.6,587.7,890.3,588.3,892.2L588.3,892.2z"/>
<path class="st1" d="M738.3,892.2c0.6,1.9,0.7,3.9,0.2,5.9c-0.5,1.9-1.5,3.7-2.9,5.1l-23.5,22.9c-0.6,0.5-0.8,1.3-0.7,2.1l5.5,32.3
	l0,0c0.5,2.6-0.1,5.4-1.6,7.6c-1.5,2.3-3.7,3.9-6.3,4.6c-2.6,0.7-5.3,0.4-7.7-0.9l-29-15.3c-0.7-0.3-1.4-0.3-2.1,0l-29,15.2
	c-2.4,1.3-5.1,1.6-7.7,0.9c-2.6-0.7-4.8-2.3-6.3-4.6c-1.5-2.3-2-5-1.6-7.6l5.6-32.3c0.2-0.8-0.1-1.6-0.7-2.1l-23.5-22.8
	c-1.9-1.9-3.1-4.4-3.2-7.1c-0.2-2.7,0.7-5.3,2.4-7.4c1.7-2.1,4.1-3.4,6.8-3.8l32.4-4.7c0.7-0.1,1.4-0.6,1.7-1.3l14.5-29.4v0
	c1.2-2.4,3.2-4.3,5.7-5.2c2.5-1,5.3-1,7.8,0c2.5,1,4.5,2.8,5.7,5.2l14.5,29.4v0c0.3,0.7,1,1.1,1.7,1.3l32.4,4.7
	c2,0.3,3.8,1.1,5.4,2.4C736.6,888.6,737.7,890.3,738.3,892.2L738.3,892.2z"/>
<g>
	<g>
		<path class="st2" d="M138.3,1032.2c0.6,1.9,0.7,3.9,0.2,5.9c-0.5,1.9-1.5,3.7-2.9,5.1l-23.5,22.9c-0.6,0.5-0.8,1.3-0.7,2.1
			l5.5,32.3l0,0c0.5,2.6-0.1,5.4-1.6,7.6c-1.5,2.3-3.7,3.9-6.3,4.6c-2.6,0.7-5.3,0.4-7.7-0.9l-29-15.3c-0.7-0.3-1.4-0.3-2.1,0
			l-29,15.2c-2.4,1.3-5.1,1.6-7.7,0.9c-2.6-0.7-4.8-2.3-6.3-4.6c-1.5-2.3-2-5-1.6-7.6l5.6-32.3c0.2-0.8-0.1-1.6-0.7-2.1l-23.5-22.8
			c-1.9-1.9-3.1-4.4-3.2-7.1c-0.2-2.7,0.7-5.3,2.4-7.4c1.7-2.1,4.1-3.4,6.8-3.8l32.4-4.7c0.7-0.1,1.4-0.6,1.7-1.3l14.5-29.4v0
			c1.2-2.4,3.2-4.3,5.7-5.2c2.5-1,5.3-1,7.8,0c2.5,1,4.5,2.8,5.7,5.2l14.5,29.4v0c0.3,0.7,1,1.1,1.7,1.3l32.4,4.7
			c2,0.3,3.8,1.1,5.4,2.4C136.6,1028.6,137.7,1030.3,138.3,1032.2L138.3,1032.2z"/>
	</g>
</g>
<path class="st1" d="M438.3,1032.2c0.6,1.9,0.7,3.9,0.2,5.9c-0.5,1.9-1.5,3.7-2.9,5.1l-23.5,22.9c-0.6,0.5-0.8,1.3-0.7,2.1l5.5,32.3
	l0,0c0.5,2.6-0.1,5.4-1.6,7.6c-1.5,2.3-3.7,3.9-6.3,4.6c-2.6,0.7-5.3,0.4-7.7-0.9l-29-15.3c-0.7-0.3-1.4-0.3-2.1,0l-29,15.2
	c-2.4,1.3-5.1,1.6-7.7,0.9c-2.6-0.7-4.8-2.3-6.3-4.6c-1.5-2.3-2-5-1.6-7.6l5.6-32.3c0.2-0.8-0.1-1.6-0.7-2.1l-23.5-22.8
	c-1.9-1.9-3.1-4.4-3.2-7.1c-0.2-2.7,0.7-5.3,2.4-7.4c1.7-2.1,4.1-3.4,6.8-3.8l32.4-4.7c0.7-0.1,1.4-0.6,1.7-1.3l14.5-29.4v0
	c1.2-2.4,3.2-4.3,5.7-5.2c2.5-1,5.3-1,7.8,0c2.5,1,4.5,2.8,5.7,5.2l14.5,29.4v0c0.3,0.7,1,1.1,1.7,1.3l32.4,4.7
	c2,0.3,3.8,1.1,5.4,2.4S437.7,1030.3,438.3,1032.2L438.3,1032.2z"/>
<path class="st1" d="M588.3,1032.2c0.6,1.9,0.7,3.9,0.2,5.9c-0.5,1.9-1.5,3.7-2.9,5.1l-23.5,22.9c-0.6,0.5-0.8,1.3-0.7,2.1l5.5,32.3
	l0,0c0.5,2.6-0.1,5.4-1.6,7.6c-1.5,2.3-3.7,3.9-6.3,4.6c-2.6,0.7-5.3,0.4-7.7-0.9l-29-15.3c-0.7-0.3-1.4-0.3-2.1,0l-29,15.2
	c-2.4,1.3-5.1,1.6-7.7,0.9c-2.6-0.7-4.8-2.3-6.3-4.6c-1.5-2.3-2-5-1.6-7.6l5.6-32.3c0.2-0.8-0.1-1.6-0.7-2.1l-23.5-22.8
	c-1.9-1.9-3.1-4.4-3.2-7.1c-0.2-2.7,0.7-5.3,2.4-7.4c1.7-2.1,4.1-3.4,6.8-3.8l32.4-4.7c0.7-0.1,1.4-0.6,1.7-1.3l14.5-29.4v0
	c1.2-2.4,3.2-4.3,5.7-5.2c2.5-1,5.3-1,7.8,0c2.5,1,4.5,2.8,5.7,5.2l14.5,29.4v0c0.3,0.7,1,1.1,1.7,1.3l32.4,4.7
	c2,0.3,3.8,1.1,5.4,2.4C586.6,1028.6,587.7,1030.3,588.3,1032.2L588.3,1032.2z"/>
<path class="st1" d="M738.3,1032.2c0.6,1.9,0.7,3.9,0.2,5.9c-0.5,1.9-1.5,3.7-2.9,5.1l-23.5,22.9c-0.6,0.5-0.8,1.3-0.7,2.1l5.5,32.3
	l0,0c0.5,2.6-0.1,5.4-1.6,7.6c-1.5,2.3-3.7,3.9-6.3,4.6c-2.6,0.7-5.3,0.4-7.7-0.9l-29-15.3c-0.7-0.3-1.4-0.3-2.1,0l-29,15.2
	c-2.4,1.3-5.1,1.6-7.7,0.9c-2.6-0.7-4.8-2.3-6.3-4.6c-1.5-2.3-2-5-1.6-7.6l5.6-32.3c0.2-0.8-0.1-1.6-0.7-2.1l-23.5-22.8
	c-1.9-1.9-3.1-4.4-3.2-7.1c-0.2-2.7,0.7-5.3,2.4-7.4c1.7-2.1,4.1-3.4,6.8-3.8l32.4-4.7c0.7-0.1,1.4-0.6,1.7-1.3l14.5-29.4v0
	c1.2-2.4,3.2-4.3,5.7-5.2c2.5-1,5.3-1,7.8,0c2.5,1,4.5,2.8,5.7,5.2l14.5,29.4v0c0.3,0.7,1,1.1,1.7,1.3l32.4,4.7
	c2,0.3,3.8,1.1,5.4,2.4C736.6,1028.6,737.7,1030.3,738.3,1032.2L738.3,1032.2z"/>
<g>
	<g>
		<path class="st2" d="M138.3,1172.2c0.6,1.9,0.7,3.9,0.2,5.9c-0.5,1.9-1.5,3.7-2.9,5.1l-23.5,22.9c-0.6,0.5-0.8,1.3-0.7,2.1
			l5.5,32.3l0,0c0.5,2.6-0.1,5.4-1.6,7.6c-1.5,2.3-3.7,3.9-6.3,4.6c-2.6,0.7-5.3,0.4-7.7-0.9l-29-15.3c-0.7-0.3-1.4-0.3-2.1,0
			l-29,15.2c-2.4,1.3-5.1,1.6-7.7,0.9c-2.6-0.7-4.8-2.3-6.3-4.6c-1.5-2.3-2-5-1.6-7.6l5.6-32.3c0.2-0.8-0.1-1.6-0.7-2.1l-23.5-22.8
			c-1.9-1.9-3.1-4.4-3.2-7.1c-0.2-2.7,0.7-5.3,2.4-7.4c1.7-2.1,4.1-3.4,6.8-3.8l32.4-4.7c0.7-0.1,1.4-0.6,1.7-1.3l14.5-29.4v0
			c1.2-2.4,3.2-4.3,5.7-5.2c2.5-1,5.3-1,7.8,0c2.5,1,4.5,2.8,5.7,5.2l14.5,29.4v0c0.3,0.7,1,1.1,1.7,1.3l32.4,4.7
			c2,0.3,3.8,1.1,5.4,2.4C136.6,1168.6,137.7,1170.3,138.3,1172.2L138.3,1172.2z"/>
	</g>
</g>
<g>
	<g>
		<path class="st1" d="M288.3,1172.2c0.6,1.9,0.7,3.9,0.2,5.9c-0.5,1.9-1.5,3.7-2.9,5.1l-23.5,22.9c-0.6,0.5-0.8,1.3-0.7,2.1
			l5.5,32.3l0,0c0.5,2.6-0.1,5.4-1.6,7.6c-1.5,2.3-3.7,3.9-6.3,4.6c-2.6,0.7-5.3,0.4-7.7-0.9l-29-15.3c-0.7-0.3-1.4-0.3-2.1,0
			l-29,15.2c-2.4,1.3-5.1,1.6-7.7,0.9c-2.6-0.7-4.8-2.3-6.3-4.6c-1.5-2.3-2-5-1.6-7.6l5.6-32.3c0.2-0.8-0.1-1.6-0.7-2.1l-23.5-22.8
			c-1.9-1.9-3.1-4.4-3.2-7.1c-0.2-2.7,0.7-5.3,2.4-7.4c1.7-2.1,4.1-3.4,6.8-3.8l32.4-4.7c0.7-0.1,1.4-0.6,1.7-1.3l14.5-29.4v0
			c1.2-2.4,3.2-4.3,5.7-5.2c2.5-1,5.3-1,7.8,0c2.5,1,4.5,2.8,5.7,5.2l14.5,29.4v0c0.3,0.7,1,1.1,1.7,1.3l32.4,4.7
			c2,0.3,3.8,1.1,5.4,2.4S287.7,1170.3,288.3,1172.2L288.3,1172.2z"/>
	</g>
</g>
<path class="st1" d="M438.3,1172.2c0.6,1.9,0.7,3.9,0.2,5.9c-0.5,1.9-1.5,3.7-2.9,5.1l-23.5,22.9c-0.6,0.5-0.8,1.3-0.7,2.1l5.5,32.3
	l0,0c0.5,2.6-0.1,5.4-1.6,7.6c-1.5,2.3-3.7,3.9-6.3,4.6c-2.6,0.7-5.3,0.4-7.7-0.9l-29-15.3c-0.7-0.3-1.4-0.3-2.1,0l-29,15.2
	c-2.4,1.3-5.1,1.6-7.7,0.9c-2.6-0.7-4.8-2.3-6.3-4.6c-1.5-2.3-2-5-1.6-7.6l5.6-32.3c0.2-0.8-0.1-1.6-0.7-2.1l-23.5-22.8
	c-1.9-1.9-3.1-4.4-3.2-7.1c-0.2-2.7,0.7-5.3,2.4-7.4c1.7-2.1,4.1-3.4,6.8-3.8l32.4-4.7c0.7-0.1,1.4-0.6,1.7-1.3l14.5-29.4v0
	c1.2-2.4,3.2-4.3,5.7-5.2c2.5-1,5.3-1,7.8,0c2.5,1,4.5,2.8,5.7,5.2l14.5,29.4v0c0.3,0.7,1,1.1,1.7,1.3l32.4,4.7
	c2,0.3,3.8,1.1,5.4,2.4S437.7,1170.3,438.3,1172.2L438.3,1172.2z"/>
<path class="st1" d="M588.3,1172.2c0.6,1.9,0.7,3.9,0.2,5.9c-0.5,1.9-1.5,3.7-2.9,5.1l-23.5,22.9c-0.6,0.5-0.8,1.3-0.7,2.1l5.5,32.3
	l0,0c0.5,2.6-0.1,5.4-1.6,7.6c-1.5,2.3-3.7,3.9-6.3,4.6c-2.6,0.7-5.3,0.4-7.7-0.9l-29-15.3c-0.7-0.3-1.4-0.3-2.1,0l-29,15.2
	c-2.4,1.3-5.1,1.6-7.7,0.9c-2.6-0.7-4.8-2.3-6.3-4.6c-1.5-2.3-2-5-1.6-7.6l5.6-32.3c0.2-0.8-0.1-1.6-0.7-2.1l-23.5-22.8
	c-1.9-1.9-3.1-4.4-3.2-7.1c-0.2-2.7,0.7-5.3,2.4-7.4c1.7-2.1,4.1-3.4,6.8-3.8l32.4-4.7c0.7-0.1,1.4-0.6,1.7-1.3l14.5-29.4v0
	c1.2-2.4,3.2-4.3,5.7-5.2c2.5-1,5.3-1,7.8,0c2.5,1,4.5,2.8,5.7,5.2l14.5,29.4v0c0.3,0.7,1,1.1,1.7,1.3l32.4,4.7
	c2,0.3,3.8,1.1,5.4,2.4C586.6,1168.6,587.7,1170.3,588.3,1172.2L588.3,1172.2z"/>
<path class="st1" d="M738.3,1172.2c0.6,1.9,0.7,3.9,0.2,5.9c-0.5,1.9-1.5,3.7-2.9,5.1l-23.5,22.9c-0.6,0.5-0.8,1.3-0.7,2.1l5.5,32.3
	l0,0c0.5,2.6-0.1,5.4-1.6,7.6c-1.5,2.3-3.7,3.9-6.3,4.6c-2.6,0.7-5.3,0.4-7.7-0.9l-29-15.3c-0.7-0.3-1.4-0.3-2.1,0l-29,15.2
	c-2.4,1.3-5.1,1.6-7.7,0.9c-2.6-0.7-4.8-2.3-6.3-4.6c-1.5-2.3-2-5-1.6-7.6l5.6-32.3c0.2-0.8-0.1-1.6-0.7-2.1l-23.5-22.8
	c-1.9-1.9-3.1-4.4-3.2-7.1c-0.2-2.7,0.7-5.3,2.4-7.4c1.7-2.1,4.1-3.4,6.8-3.8l32.4-4.7c0.7-0.1,1.4-0.6,1.7-1.3l14.5-29.4v0
	c1.2-2.4,3.2-4.3,5.7-5.2c2.5-1,5.3-1,7.8,0c2.5,1,4.5,2.8,5.7,5.2l14.5,29.4v0c0.3,0.7,1,1.1,1.7,1.3l32.4,4.7
	c2,0.3,3.8,1.1,5.4,2.4C736.6,1168.6,737.7,1170.3,738.3,1172.2L738.3,1172.2z"/>
<g>
	<g>
		<path class="st1" d="M288.3,1312.2c0.6,1.9,0.7,3.9,0.2,5.9c-0.5,1.9-1.5,3.7-2.9,5.1l-23.5,22.9c-0.6,0.5-0.8,1.3-0.7,2.1
			l5.5,32.3l0,0c0.5,2.6-0.1,5.4-1.6,7.6c-1.5,2.3-3.7,3.9-6.3,4.6c-2.6,0.7-5.3,0.4-7.7-0.9l-29-15.3c-0.7-0.3-1.4-0.3-2.1,0
			l-29,15.2c-2.4,1.3-5.1,1.6-7.7,0.9c-2.6-0.7-4.8-2.3-6.3-4.6c-1.5-2.3-2-5-1.6-7.6l5.6-32.3c0.2-0.8-0.1-1.6-0.7-2.1l-23.5-22.8
			c-1.9-1.9-3.1-4.4-3.2-7.1c-0.2-2.7,0.7-5.3,2.4-7.4c1.7-2.1,4.1-3.4,6.8-3.8l32.4-4.7c0.7-0.1,1.4-0.6,1.7-1.3l14.5-29.4v0
			c1.2-2.4,3.2-4.3,5.7-5.2c2.5-1,5.3-1,7.8,0c2.5,1,4.5,2.8,5.7,5.2l14.5,29.4v0c0.3,0.7,1,1.1,1.7,1.3l32.4,4.7
			c2,0.3,3.8,1.1,5.4,2.4S287.7,1310.3,288.3,1312.2L288.3,1312.2z"/>
	</g>
</g>
<path class="st1" d="M438.3,1312.2c0.6,1.9,0.7,3.9,0.2,5.9c-0.5,1.9-1.5,3.7-2.9,5.1l-23.5,22.9c-0.6,0.5-0.8,1.3-0.7,2.1l5.5,32.3
	l0,0c0.5,2.6-0.1,5.4-1.6,7.6c-1.5,2.3-3.7,3.9-6.3,4.6c-2.6,0.7-5.3,0.4-7.7-0.9l-29-15.3c-0.7-0.3-1.4-0.3-2.1,0l-29,15.2
	c-2.4,1.3-5.1,1.6-7.7,0.9c-2.6-0.7-4.8-2.3-6.3-4.6c-1.5-2.3-2-5-1.6-7.6l5.6-32.3c0.2-0.8-0.1-1.6-0.7-2.1l-23.5-22.8
	c-1.9-1.9-3.1-4.4-3.2-7.1c-0.2-2.7,0.7-5.3,2.4-7.4c1.7-2.1,4.1-3.4,6.8-3.8l32.4-4.7c0.7-0.1,1.4-0.6,1.7-1.3l14.5-29.4v0
	c1.2-2.4,3.2-4.3,5.7-5.2c2.5-1,5.3-1,7.8,0c2.5,1,4.5,2.8,5.7,5.2l14.5,29.4v0c0.3,0.7,1,1.1,1.7,1.3l32.4,4.7
	c2,0.3,3.8,1.1,5.4,2.4S437.7,1310.3,438.3,1312.2L438.3,1312.2z"/>
<path class="st1" d="M588.3,1312.2c0.6,1.9,0.7,3.9,0.2,5.9c-0.5,1.9-1.5,3.7-2.9,5.1l-23.5,22.9c-0.6,0.5-0.8,1.3-0.7,2.1l5.5,32.3
	l0,0c0.5,2.6-0.1,5.4-1.6,7.6c-1.5,2.3-3.7,3.9-6.3,4.6c-2.6,0.7-5.3,0.4-7.7-0.9l-29-15.3c-0.7-0.3-1.4-0.3-2.1,0l-29,15.2
	c-2.4,1.3-5.1,1.6-7.7,0.9c-2.6-0.7-4.8-2.3-6.3-4.6c-1.5-2.3-2-5-1.6-7.6l5.6-32.3c0.2-0.8-0.1-1.6-0.7-2.1l-23.5-22.8
	c-1.9-1.9-3.1-4.4-3.2-7.1c-0.2-2.7,0.7-5.3,2.4-7.4c1.7-2.1,4.1-3.4,6.8-3.8l32.4-4.7c0.7-0.1,1.4-0.6,1.7-1.3l14.5-29.4v0
	c1.2-2.4,3.2-4.3,5.7-5.2c2.5-1,5.3-1,7.8,0c2.5,1,4.5,2.8,5.7,5.2l14.5,29.4v0c0.3,0.7,1,1.1,1.7,1.3l32.4,4.7
	c2,0.3,3.8,1.1,5.4,2.4C586.6,1308.6,587.7,1310.3,588.3,1312.2L588.3,1312.2z"/>
<path class="st1" d="M738.3,1312.2c0.6,1.9,0.7,3.9,0.2,5.9c-0.5,1.9-1.5,3.7-2.9,5.1l-23.5,22.9c-0.6,0.5-0.8,1.3-0.7,2.1l5.5,32.3
	l0,0c0.5,2.6-0.1,5.4-1.6,7.6c-1.5,2.3-3.7,3.9-6.3,4.6c-2.6,0.7-5.3,0.4-7.7-0.9l-29-15.3c-0.7-0.3-1.4-0.3-2.1,0l-29,15.2
	c-2.4,1.3-5.1,1.6-7.7,0.9c-2.6-0.7-4.8-2.3-6.3-4.6c-1.5-2.3-2-5-1.6-7.6l5.6-32.3c0.2-0.8-0.1-1.6-0.7-2.1l-23.5-22.8
	c-1.9-1.9-3.1-4.4-3.2-7.1c-0.2-2.7,0.7-5.3,2.4-7.4c1.7-2.1,4.1-3.4,6.8-3.8l32.4-4.7c0.7-0.1,1.4-0.6,1.7-1.3l14.5-29.4v0
	c1.2-2.4,3.2-4.3,5.7-5.2c2.5-1,5.3-1,7.8,0c2.5,1,4.5,2.8,5.7,5.2l14.5,29.4v0c0.3,0.7,1,1.1,1.7,1.3l32.4,4.7
	c2,0.3,3.8,1.1,5.4,2.4C736.6,1308.6,737.7,1310.3,738.3,1312.2L738.3,1312.2z"/>
<use xlink:href="#Nuevo_símbolo"  width="139.9" height="134.4" x="-69.9" y="-67.2" transform="matrix(1 0 0 -1 671.4318 209.1098)" style="overflow:visible;"/>
<use xlink:href="#Nuevo_símbolo_1"  width="139.9" height="134.4" x="-69.9" y="-67.2" transform="matrix(1 0 0 -1 671.4318 348.291)" style="overflow:visible;"/>
<use xlink:href="#Nuevo_símbolo"  width="139.9" height="134.4" x="-69.9" y="-67.2" transform="matrix(1 0 0 -1 521.4318 488.291)" style="overflow:visible;"/>
<use xlink:href="#Nuevo_símbolo"  width="139.9" height="134.4" x="-69.9" y="-67.2" transform="matrix(1 0 0 -1 371.4318 768.291)" style="overflow:visible;"/>
<use xlink:href="#Nuevo_símbolo"  width="139.9" height="134.4" x="-69.9" y="-67.2" transform="matrix(1 0 0 -1 221.4318 1048.291)" style="overflow:visible;"/>
<use xlink:href="#Nuevo_símbolo"  width="139.9" height="134.4" x="-69.9" y="-67.2" transform="matrix(1 0 0 -1 71.4318 1328.291)" style="overflow:visible;"/>
<g>
	<g>
		<path class="st1" d="M288.3,1452.2c0.6,1.9,0.7,3.9,0.2,5.9c-0.5,1.9-1.5,3.7-2.9,5.1l-23.5,22.9c-0.6,0.5-0.8,1.3-0.7,2.1
			l5.5,32.3l0,0c0.5,2.6-0.1,5.4-1.6,7.6c-1.5,2.3-3.7,3.9-6.3,4.6c-2.6,0.7-5.3,0.4-7.7-0.9l-29-15.3c-0.7-0.3-1.4-0.3-2.1,0
			l-29,15.2c-2.4,1.3-5.1,1.6-7.7,0.9c-2.6-0.7-4.8-2.3-6.3-4.6c-1.5-2.3-2-5-1.6-7.6l5.6-32.3c0.2-0.8-0.1-1.6-0.7-2.1l-23.5-22.8
			c-1.9-1.9-3.1-4.4-3.2-7.1c-0.2-2.7,0.7-5.3,2.4-7.4c1.7-2.1,4.1-3.4,6.8-3.8l32.4-4.7c0.7-0.1,1.4-0.6,1.7-1.3l14.5-29.4v0
			c1.2-2.4,3.2-4.3,5.7-5.2c2.5-1,5.3-1,7.8,0c2.5,1,4.5,2.8,5.7,5.2l14.5,29.4v0c0.3,0.7,1,1.1,1.7,1.3l32.4,4.7
			c2,0.3,3.8,1.1,5.4,2.4S287.7,1450.3,288.3,1452.2L288.3,1452.2z"/>
	</g>
</g>
<g>
	<g>
		<path class="st1" d="M138.3,1452.2c0.6,1.9,0.7,3.9,0.2,5.9c-0.5,1.9-1.5,3.7-2.9,5.1l-23.5,22.9c-0.6,0.5-0.8,1.3-0.7,2.1
			l5.5,32.3l0,0c0.5,2.6-0.1,5.4-1.6,7.6c-1.5,2.3-3.7,3.9-6.3,4.6c-2.6,0.7-5.3,0.4-7.7-0.9l-29-15.3c-0.7-0.3-1.4-0.3-2.1,0
			l-29,15.2c-2.4,1.3-5.1,1.6-7.7,0.9c-2.6-0.7-4.8-2.3-6.3-4.6c-1.5-2.3-2-5-1.6-7.6l5.6-32.3c0.2-0.8-0.1-1.6-0.7-2.1l-23.5-22.8
			c-1.9-1.9-3.1-4.4-3.2-7.1c-0.2-2.7,0.7-5.3,2.4-7.4c1.7-2.1,4.1-3.4,6.8-3.8l32.4-4.7c0.7-0.1,1.4-0.6,1.7-1.3l14.5-29.4v0
			c1.2-2.4,3.2-4.3,5.7-5.2c2.5-1,5.3-1,7.8,0c2.5,1,4.5,2.8,5.7,5.2l14.5,29.4v0c0.3,0.7,1,1.1,1.7,1.3l32.4,4.7
			c2,0.3,3.8,1.1,5.4,2.4C136.6,1448.6,137.7,1450.3,138.3,1452.2L138.3,1452.2z"/>
	</g>
</g>
<path class="st1" d="M438.3,1452.2c0.6,1.9,0.7,3.9,0.2,5.9c-0.5,1.9-1.5,3.7-2.9,5.1l-23.5,22.9c-0.6,0.5-0.8,1.3-0.7,2.1l5.5,32.3
	l0,0c0.5,2.6-0.1,5.4-1.6,7.6c-1.5,2.3-3.7,3.9-6.3,4.6c-2.6,0.7-5.3,0.4-7.7-0.9l-29-15.3c-0.7-0.3-1.4-0.3-2.1,0l-29,15.2
	c-2.4,1.3-5.1,1.6-7.7,0.9c-2.6-0.7-4.8-2.3-6.3-4.6c-1.5-2.3-2-5-1.6-7.6l5.6-32.3c0.2-0.8-0.1-1.6-0.7-2.1l-23.5-22.8
	c-1.9-1.9-3.1-4.4-3.2-7.1c-0.2-2.7,0.7-5.3,2.4-7.4c1.7-2.1,4.1-3.4,6.8-3.8l32.4-4.7c0.7-0.1,1.4-0.6,1.7-1.3l14.5-29.4v0
	c1.2-2.4,3.2-4.3,5.7-5.2c2.5-1,5.3-1,7.8,0c2.5,1,4.5,2.8,5.7,5.2l14.5,29.4v0c0.3,0.7,1,1.1,1.7,1.3l32.4,4.7
	c2,0.3,3.8,1.1,5.4,2.4S437.7,1450.3,438.3,1452.2L438.3,1452.2z"/>
<path class="st1" d="M588.3,1452.2c0.6,1.9,0.7,3.9,0.2,5.9c-0.5,1.9-1.5,3.7-2.9,5.1l-23.5,22.9c-0.6,0.5-0.8,1.3-0.7,2.1l5.5,32.3
	l0,0c0.5,2.6-0.1,5.4-1.6,7.6c-1.5,2.3-3.7,3.9-6.3,4.6c-2.6,0.7-5.3,0.4-7.7-0.9l-29-15.3c-0.7-0.3-1.4-0.3-2.1,0l-29,15.2
	c-2.4,1.3-5.1,1.6-7.7,0.9c-2.6-0.7-4.8-2.3-6.3-4.6c-1.5-2.3-2-5-1.6-7.6l5.6-32.3c0.2-0.8-0.1-1.6-0.7-2.1l-23.5-22.8
	c-1.9-1.9-3.1-4.4-3.2-7.1c-0.2-2.7,0.7-5.3,2.4-7.4c1.7-2.1,4.1-3.4,6.8-3.8l32.4-4.7c0.7-0.1,1.4-0.6,1.7-1.3l14.5-29.4v0
	c1.2-2.4,3.2-4.3,5.7-5.2c2.5-1,5.3-1,7.8,0c2.5,1,4.5,2.8,5.7,5.2l14.5,29.4v0c0.3,0.7,1,1.1,1.7,1.3l32.4,4.7
	c2,0.3,3.8,1.1,5.4,2.4C586.6,1448.6,587.7,1450.3,588.3,1452.2L588.3,1452.2z"/>
<path class="st1" d="M738.3,1452.2c0.6,1.9,0.7,3.9,0.2,5.9c-0.5,1.9-1.5,3.7-2.9,5.1l-23.5,22.9c-0.6,0.5-0.8,1.3-0.7,2.1l5.5,32.3
	l0,0c0.5,2.6-0.1,5.4-1.6,7.6c-1.5,2.3-3.7,3.9-6.3,4.6c-2.6,0.7-5.3,0.4-7.7-0.9l-29-15.3c-0.7-0.3-1.4-0.3-2.1,0l-29,15.2
	c-2.4,1.3-5.1,1.6-7.7,0.9c-2.6-0.7-4.8-2.3-6.3-4.6c-1.5-2.3-2-5-1.6-7.6l5.6-32.3c0.2-0.8-0.1-1.6-0.7-2.1l-23.5-22.8
	c-1.9-1.9-3.1-4.4-3.2-7.1c-0.2-2.7,0.7-5.3,2.4-7.4c1.7-2.1,4.1-3.4,6.8-3.8l32.4-4.7c0.7-0.1,1.4-0.6,1.7-1.3l14.5-29.4v0
	c1.2-2.4,3.2-4.3,5.7-5.2c2.5-1,5.3-1,7.8,0c2.5,1,4.5,2.8,5.7,5.2l14.5,29.4v0c0.3,0.7,1,1.1,1.7,1.3l32.4,4.7
	c2,0.3,3.8,1.1,5.4,2.4C736.6,1448.6,737.7,1450.3,738.3,1452.2L738.3,1452.2z"/>
</svg>
