<?xml version="1.0" encoding="utf-8"?>
<!-- Generator: Adobe Illustrator 25.4.1, SVG Export Plug-In . SVG Version: 6.00 Build 0)  -->
<svg version="1.1" id="Layer_1" xmlns="http://www.w3.org/2000/svg" xmlns:xlink="http://www.w3.org/1999/xlink" x="0px" y="0px"
	 viewBox="0 0 100 100" style="enable-background:new 0 0 100 100;" xml:space="preserve">
<style type="text/css">
	.st0{fill-rule:evenodd;clip-rule:evenodd;fill:#3C5B9A;}
	.st1{fill-rule:evenodd;clip-rule:evenodd;fill:#FEFEFE;}
</style>
<g>
	<ellipse transform="matrix(0.7071 -0.7071 0.7071 0.7071 -20.7107 50)" class="st0" cx="50" cy="50" rx="49.5" ry="49.5"/>
	<path class="st1" d="M42.2,64.9c0-4.6,0-9.3,0-13.9c0-0.8-0.2-1-1-1c-1.4,0.1-2.9,0-4.3,0c-0.6,0-0.8-0.1-0.8-0.8
		c0-2.9,0-5.8,0-8.7c0-0.6,0.2-0.7,0.7-0.7c1.5,0,3,0,4.4,0c0.9,0,1-0.3,1-1.1c-0.1-2.2-0.1-4.4,0-6.6c0.1-2.7,0.8-5.2,2.4-7.4
		c2-2.8,4.9-4,8.2-4.2c3.4-0.2,6.8-0.1,10.2-0.1c0.5,0,0.6,0.2,0.6,0.6c0,2.9,0,5.8,0,8.8c0,0.5-0.2,0.7-0.7,0.7c-1.6,0-3.3,0-4.9,0
		c-2.2,0-3.5,1.1-3.6,3.3c-0.1,1.7,0,3.5-0.1,5.2c0,0.6,0.4,0.6,0.8,0.6c2.5,0,5,0,7.5,0c0.7,0,1,0.2,0.9,0.9
		c-0.3,2.9-0.6,5.8-0.8,8.7c-0.1,0.7-0.4,0.8-0.9,0.8c-2,0-3.9,0-5.9,0c-1.4,0-1.3-0.2-1.3,1.2c0,9.1,0,18.1,0,27.2
		c0,1-0.2,1.2-1.2,1.2c-3.4-0.1-6.8-0.1-10.2,0c-1,0-1.1-0.3-1.1-1.2C42.3,74.1,42.2,69.5,42.2,64.9z"/>
</g>
</svg>
