<?xml version="1.0" encoding="utf-8"?>
<!-- Generator: Adobe Illustrator 25.4.1, SVG Export Plug-In . SVG Version: 6.00 Build 0)  -->
<svg version="1.1" id="Capa_1" xmlns="http://www.w3.org/2000/svg" xmlns:xlink="http://www.w3.org/1999/xlink" x="0px" y="0px"
	 viewBox="0 0 21.6 70" style="enable-background:new 0 0 21.6 70;" xml:space="preserve">
<path d="M20.7,35c0,2.6-1,5.1-2.9,7c-1.8,1.8-4.4,2.9-7,2.9s-5.1-1-7-2.9c-1.8-1.8-2.9-4.4-2.9-7s1-5.1,2.9-7c1.8-1.8,4.4-2.9,7-2.9
	s5.1,1,7,2.9C19.6,29.9,20.7,32.4,20.7,35z M10.8,0.5c-2.6,0-5.1,1-7,2.9c-1.8,1.8-2.9,4.4-2.9,7s1,5.1,2.9,7c1.8,1.8,4.4,2.9,7,2.9
	s5.1-1,7-2.9c1.8-1.8,2.9-4.4,2.9-7s-1-5.1-2.9-7C15.9,1.5,13.4,0.5,10.8,0.5z M10.8,49.8c-2.6,0-5.1,1-7,2.9
	c-1.8,1.8-2.9,4.4-2.9,7c0,2.6,1,5.1,2.9,7c1.8,1.8,4.4,2.9,7,2.9s5.1-1,7-2.9c1.8-1.8,2.9-4.4,2.9-7c0-2.6-1-5.1-2.9-7
	C15.9,50.8,13.4,49.8,10.8,49.8z"/>
</svg>
