<?xml version="1.0" encoding="utf-8"?>
<!-- Generator: Adobe Illustrator 25.4.1, SVG Export Plug-In . SVG Version: 6.00 Build 0)  -->
<svg version="1.1" id="Capa_1" xmlns="http://www.w3.org/2000/svg" xmlns:xlink="http://www.w3.org/1999/xlink" x="0px" y="0px"
	 viewBox="0 0 80 80" style="enable-background:new 0 0 80 80;" xml:space="preserve">
<g>
	<path d="M77.3,13.3L50.6,40l26.7,26.7c1.9,1.9,2.6,4.7,1.9,7.3c-0.7,2.6-2.7,4.6-5.3,5.3c-2.6,0.7-5.4,0-7.3-1.9L40,50.6L13.3,77.3
		c-1.9,1.9-4.7,2.6-7.3,1.9c-2.6-0.7-4.6-2.7-5.3-5.3c-0.7-2.6,0-5.4,1.9-7.3L29.4,40L2.7,13.3c-1.9-1.9-2.6-4.7-1.9-7.3
		c0.7-2.6,2.7-4.6,5.3-5.3c2.6-0.7,5.4,0,7.3,1.9L40,29.4L66.7,2.7c1.9-1.9,4.7-2.6,7.3-1.9c2.6,0.7,4.6,2.7,5.3,5.3
		C79.9,8.7,79.2,11.4,77.3,13.3L77.3,13.3z"/>
</g>
</svg>
