<?xml version="1.0" encoding="utf-8"?>
<!-- Generator: Adobe Illustrator 25.4.1, SVG Export Plug-In . SVG Version: 6.00 Build 0)  -->
<svg version="1.1" id="Layer_1" xmlns="http://www.w3.org/2000/svg" xmlns:xlink="http://www.w3.org/1999/xlink" x="0px" y="0px"
	 viewBox="0 0 100 100" style="enable-background:new 0 0 100 100;" xml:space="preserve">
<style type="text/css">
	.st0{fill:#1DA1F2;}
	.st1{fill:#FFFFFF;}
</style>
<g>
	<circle id="XMLID_3_" class="st0" cx="50" cy="50" r="49.5"/>
	<path id="XMLID_2_" class="st1" d="M39.2,73.6c21.9,0,34-18.2,34-34c0-0.5,0-1,0-1.5c2.3-1.7,4.4-3.8,6-6.2
		c-2.1,0.9-4.4,1.6-6.9,1.9c2.5-1.5,4.4-3.8,5.2-6.6c-2.3,1.4-4.9,2.4-7.6,2.9c-2.2-2.3-5.3-3.8-8.7-3.8c-6.6,0-11.9,5.3-11.9,11.9
		c0,0.9,0.1,1.8,0.3,2.7c-9.9-0.5-18.7-5.2-24.6-12.5c-1,1.8-1.6,3.8-1.6,6c0,4.1,2.1,7.8,5.3,9.9c-2-0.1-3.8-0.6-5.4-1.5
		c0,0,0,0.1,0,0.2c0,5.8,4.1,10.6,9.6,11.7c-1,0.3-2.1,0.4-3.1,0.4c-0.8,0-1.5-0.1-2.2-0.2c1.5,4.7,5.9,8.2,11.1,8.3
		c-4.1,3.2-9.2,5.1-14.8,5.1c-1,0-1.9-0.1-2.8-0.2C26.2,71.7,32.5,73.6,39.2,73.6"/>
</g>
</svg>
