<?xml version="1.0" encoding="utf-8"?>
<!-- Generator: Adobe Illustrator 25.4.1, SVG Export Plug-In . SVG Version: 6.00 Build 0)  -->
<svg version="1.1" id="Capa_1" xmlns="http://www.w3.org/2000/svg" xmlns:xlink="http://www.w3.org/1999/xlink" x="0px" y="0px"
	 viewBox="0 0 70 55.1" style="enable-background:new 0 0 70 55.1;" xml:space="preserve">
<g>
	<path d="M0.5,48.4c0,3.2,2.8,5.8,6.2,5.8h56.4c3.5,0,6.3-2.6,6.3-5.8V28.9h-69L0.5,48.4z"/>
	<path d="M63.2,11.4H50.6v-5c0-3.2-2.8-5.6-6.3-5.6H26.7c-3.5,0-6.5,2.4-6.5,5.6v5H6.7c-3.5,0-6.2,2.4-6.2,5.6v8.9h69V17
		C69.5,13.8,66.7,11.4,63.2,11.4L63.2,11.4z M42.4,11.4H28.6V8.8c0-0.8,0.7-1.2,1.6-1.2h10.7c0.9,0,1.5,0.4,1.5,1.2L42.4,11.4z"/>
</g>
</svg>
