<?xml version="1.0" encoding="utf-8"?>
<!-- Generator: Adobe Illustrator 25.4.1, SVG Export Plug-In . SVG Version: 6.00 Build 0)  -->
<svg version="1.1" id="Capa_1" xmlns="http://www.w3.org/2000/svg" xmlns:xlink="http://www.w3.org/1999/xlink" x="0px" y="0px"
	 viewBox="0 0 1462.5 177.2" style="enable-background:new 0 0 1462.5 177.2;" xml:space="preserve">
<g>
	<path d="M130.5,22.5L71.1,154.8h-1.8l-59-132.3h15.6l44.3,101l44.5-101H130.5z"/>
	<path d="M169.4,22.5h14.7v130.3h-14.7V22.5z"/>
	<path d="M226.6,129.5l11.3-8.3c5.9,11.2,19.2,18.6,33.1,18.6c17.1,0,31-9.2,31-22.1c0-14.6-18.7-21.7-35.3-28
		c-16-6.2-33.9-14.1-33.9-34.2c0-20,18-35,40.9-35c19.3,0,32.5,10.6,37.3,23.4l-11.1,7.4c-4.2-9.8-14.7-16.4-26.4-16.4
		c-14,0-25.9,9.2-25.9,20.9c0,12.6,14.3,17.2,31.1,23.7c19.6,7.9,38.1,17,38.1,37.9c0,22.5-20.8,37.1-45.8,37.1
		C249.4,154.5,232.8,143.4,226.6,129.5z"/>
	<path d="M439.9,37h-37.8v115.8h-14.7V37h-37.9V22.5h90.4V37z"/>
	<path d="M495.6,36.9v41.2h53.6v14.7h-53.6v45.3h61.8v14.6h-76.6V22.5h76.6V37L495.6,36.9L495.6,36.9z"/>
	<path d="M684.8,37H647v115.8h-14.7V37h-37.9V22.5h90.4V37z"/>
	<path d="M740.6,36.9v41.2h53.6v14.7h-53.6v45.3h61.8v14.6h-76.6V22.5h76.6V37L740.6,36.9L740.6,36.9z"/>
	<path d="M936.4,113.2c0,19.2-13.8,39.5-40.7,39.5h-49.2V22.5h35.6c23.1,0,37.8,17,37.8,34.5c0,13.8-9.1,22.4-12.3,22.4
		C920.2,79.4,936.4,92.3,936.4,113.2z M872.6,47.9v25.5h10.6c6.2,0,12.3-5.3,12.3-12.9c0-7.4-5.7-12.5-11.8-12.5L872.6,47.9
		L872.6,47.9z M910.9,111.4c0-7.5-5.2-15-17.6-15h-20.6v30.9h20.7C901.8,127.2,910.9,121.4,910.9,111.4z"/>
	<path d="M1000.5,48.2v25.5h44.9v26.1h-44.9v26.9h52.4v26h-78.6V22.5h78.6v25.8L1000.5,48.2L1000.5,48.2z"/>
	<path d="M1173.9,126.7v26h-78.6V22.5h26.2v104.3h52.4V126.7z"/>
	<path d="M1290.4,126.7v26h-78.6V22.5h26.2v104.3h52.4V126.7z"/>
	<path d="M1381.7,19.2h-0.8l-62.2,133.5h24h4.3h68.7h6.6h21.7L1381.7,19.2z M1368.4,105.8L1368.4,105.8l13-28.4l14,30.8l10.2,22.3
		h-48.4l8.3-18.2l0,0L1368.4,105.8z"/>
</g>
</svg>
